<svg version="1.1" xmlns="http://www.w3.org/2000/svg" xmlns:xlink="http://www.w3.org/1999/xlink" width="173.71337" height="135.86539" viewBox="0,0,173.71337,135.86539"><g transform="translate(-153.14332,-112.06731)"><g data-paper-data="{&quot;isPaintingLayer&quot;:true}" fill="#000000" fill-rule="nonzero" stroke="none" stroke-width="0.5" stroke-linecap="butt" stroke-linejoin="miter" stroke-miterlimit="10" stroke-dasharray="" stroke-dashoffset="0" style="mix-blend-mode: normal"><path d="M217.51556,200.74602c0,-0.45313 0.08213,-0.82413 0.21662,-1.12789c-0.86514,-0.66093 -1.71675,-1.33671 -2.48439,-2.10435c-0.90738,-0.90738 -1.33622,-2.2036 -2.16559,-3.18279c-2.02658,-2.39269 -4.26113,-4.62244 -6.65162,-6.65162c-1.01688,-0.86318 -2.43066,-1.25807 -3.28922,-2.27885c-1.01135,-1.20244 -1.28713,-2.88224 -2.15391,-4.19273c-1.07223,-1.62112 -3.09493,-2.48297 -4.09852,-4.14745c-2.79321,-4.63259 -2.37337,-10.18619 -2.37337,-15.31433c0,-5.33333 0,-10.66667 0,-16c0,-2.76789 -0.67004,-6.93192 0.06688,-9.57438c0.25067,-0.89885 3.62921,-7.23855 4.12342,-8.38233c0.47068,-1.08931 0.52471,-2.37035 1.18307,-3.35762c1.30769,-1.961 3.80906,-2.96598 5,-5c0.57263,-0.978 0.387,-2.35605 1.13986,-3.20316c1.13849,-1.28101 2.6415,-2.31834 4.26231,-2.87525c1.36332,-0.46843 2.89773,0.13435 4.324,-0.07499c1.04292,-0.15308 1.95602,-0.85438 3,-1c3.26238,-0.45507 7.08168,-0.03228 10.40046,-0.03228c7.68703,0 15.41321,-0.04229 22.08691,4.24864c1.0758,0.37491 2.25037,0.53881 3.22741,1.12473c0.85834,0.51474 1.31118,1.54864 2.14745,2.09852c3.3239,2.1856 7.51917,2.92105 10.85255,4.90148c0.81055,0.48156 1.19155,1.51493 2,2c0.90388,0.54233 2.09846,0.45379 3,1c2.43835,1.4773 4.55464,4.81557 7.41013,5.7339c2.24517,0.72205 5.22929,-0.14679 6.91354,1.5041c3.23738,3.17325 2.82463,5.21578 2.862,8.88863c0.08431,8.28805 0.9878,17.27933 -1.01873,25.30546c-0.1927,7.44143 -7.39011,14.11004 -12.74452,18.76332c-0.87553,0.76088 -4.12904,3.5094 -4.61012,4.24555c-0.61997,0.9487 -0.40702,2.33867 -1.13986,3.20316c-1.02386,1.20778 -2.49262,1.98074 -3.88839,2.7283c-1.78719,0.95721 -4.05713,0.81874 -5.78405,1.88084c-0.8295,0.51016 -1.20419,1.62845 -2.08258,2.04887c-1.53233,0.73342 -3.24154,1.08768 -4.92629,1.30577c-0.17197,0.02226 -7.00515,0.01873 -8.30546,0.01873c-6.66667,0 -13.33333,0 -20,0h-0.46779c-0.33708,0.07836 -0.65701,0.06378 -0.94522,0h-2.58699c0,0 -2.5,0 -2.5,-2.5zM223.99632,198.24602c6.66667,0 13.35257,0 20.01924,0c3.30936,0 7.71567,0.94241 10.76825,-0.6755c0.80569,-0.42703 1.13117,-1.48928 1.91742,-1.95113c2.12186,-1.2464 6.72496,-1.19679 8.32756,-3.39086c0.57531,-0.78764 0.31248,-1.98973 0.86014,-2.79684c1.0592,-1.56101 3.95845,-3.98497 5.58774,-5.39449c4.22841,-3.65808 11.26178,-9.6452 11.05762,-15.59664c1.75084,-7.00337 0.98127,-14.48457 0.98127,-21.69454c0,-2.44095 0.79087,-6.09192 -1.138,-8.11137c-1.17663,-1.23188 -3.47447,0.055 -5.08646,-0.4959c-1.3662,-0.4669 -2.45177,-1.52576 -3.66229,-2.3126c-1.76563,-1.14767 -3.11664,-2.87876 -4.92758,-3.9535c-0.90648,-0.53797 -2.09612,-0.45767 -3,-1c-0.80845,-0.48507 -1.19397,-1.51091 -2,-2c-3.37024,-2.04501 -7.73155,-2.87254 -11.14745,-5.09852c-0.74139,-0.48313 -1.09387,-1.446 -1.85255,-1.90148c-0.83091,-0.49885 -1.84839,-0.58351 -2.77259,-0.87527c-5.97683,-3.95657 -12.98027,-3.75136 -19.91309,-3.75136c-3.02995,0 -6.62012,-0.46917 -9.59954,-0.03228c-1.04294,0.15293 -1.95588,0.85533 -3,1c-1.78126,0.24681 -4.10219,-0.93003 -5.41369,1.04977c-0.53866,0.81314 -0.35032,1.96532 -0.86014,2.79684c-1.87016,3.05029 -2.98267,1.97293 -5,5c-0.51127,0.76717 -0.45643,1.79386 -0.81693,2.64238c-1.11407,2.62226 -3.07006,4.8851 -3.87658,7.61767c-0.65892,2.23248 0.06688,6.08688 0.06688,8.42562c0,5.33333 0,10.66667 0,16c0,4.05559 -0.58435,8.97361 1.62663,12.68567c0.93527,1.57025 2.88236,2.33538 3.90148,3.85255c0.78645,1.17079 0.94901,2.71892 1.84609,3.80727c0.68078,0.82593 1.89187,1.03193 2.71078,1.72115c0.17118,0.14407 7.24487,7.22617 7.34838,7.34838c0.72426,0.8551 1.04203,2.02482 1.83441,2.81721c1.5873,1.5873 3.52576,2.78971 5.213,4.26777z"/><path d="M217.51556,152.74602c0,-1.38071 1.11929,-2.5 2.5,-2.5c1.38071,0 2.5,1.11929 2.5,2.5c0,1.38071 -1.11929,2.5 -2.5,2.5c-1.38071,0 -2.5,-1.11929 -2.5,-2.5z"/><path d="M255.51556,154.74602c0,-1.38071 1.11929,-2.5 2.5,-2.5c1.38071,0 2.5,1.11929 2.5,2.5c0,1.38071 -1.11929,2.5 -2.5,2.5c-1.38071,0 -2.5,-1.11929 -2.5,-2.5z"/><path d="M272.25162,168.62798c1.11803,2.23607 -1.11803,3.3541 -1.11803,3.3541l-1.35027,0.5317c-2.3774,2.3551 -4.0306,5.0076 -6.45344,7.35886c-7.53316,2.58124 -16.37511,1.37337 -24.31433,1.37337c-6.19217,0 -13.31569,0.97874 -19.40046,-0.03228c-5.43377,-0.90285 -10.99929,-4.18695 -11.09954,-10.46772c-0.02104,-1.31814 0.75219,-2.52705 1.12829,-3.79057c0,0 0.79057,-2.37171 3.16228,-1.58114c2.37171,0.79057 1.58114,3.16228 1.58114,3.16228c-1.83245,4.64452 1.65383,7.00964 6.02875,7.74171c3.01239,0.50407 6.5333,-0.03228 9.59954,-0.03228c5.33333,0 10.66667,0 16,0c4.72554,0 10.15718,0.80371 14.68567,-0.62663c2.02227,-2.13557 3.45837,-4.53635 5.54656,-6.64114l2.64973,-1.4683c0,0 2.23607,-1.11803 3.3541,1.11803z"/><path d="M194.54911,187.06674c1.63387,1.89222 -0.25834,3.52609 -0.25834,3.52609l-2.12197,1.80894c-0.52874,0.67289 -1.15914,0.8804 -1.71894,0.89102c-0.63378,0.21466 -1.25735,0.44534 -1.75353,0.87601c-0.81394,0.70646 -0.85557,2.09723 -1.72424,2.7352c-2.13164,1.56552 -5.01466,1.69136 -7.47023,2.67367c-3.57804,3.66856 -6.51908,5.55137 -11.55655,6.73016c-1.23008,0.28785 -2.4771,0.99613 -3.71559,0.74692c-1.62097,-0.32615 -2.92192,-1.54978 -4.3569,-2.37119c-2.06506,-1.18209 -6.50392,-3.34205 -6.71609,-6.3683c-0.3492,-4.98112 6.20596,-6.67541 9.48826,-8.18032c5.18082,-2.37537 9.37904,-3.67846 14.88722,-4.53863c1.50543,-0.23509 2.92047,-1.03171 4.44361,-1.07164c3.05157,-0.08001 5.58955,1.58051 8.05536,3.15377l0.99182,-0.87002c0,0 1.89222,-1.63387 3.52609,0.25834zM185.2982,190.50002c-1.09162,-0.61836 -2.21594,-1.06528 -3.23839,-0.97607c-6.19665,0.54068 -11.68408,2.56699 -17.33095,5.15603c-1.95352,0.89568 -3.93317,1.73628 -5.86186,2.68427c-0.26676,0.13112 -0.83372,0.23449 -0.72948,0.51286c0.58117,1.55211 2.88849,1.6285 4.29218,2.50966c0.86085,0.54039 1.53209,1.47253 2.51796,1.71979c0.60828,0.15256 1.16401,-0.47395 1.76734,-0.64501c4.63705,-1.31466 6.54047,-2.60347 10.00598,-6.03923c1.74287,-0.73302 3.44279,-1.57799 5.22863,-2.19908c0.64768,-0.22525 1.49936,0.10702 2.03123,-0.32581c0.70669,-0.5751 0.64565,-1.78772 1.31736,-2.39742z"/><path d="M291.08552,188.65316c0.23411,-0.30136 0.4785,-0.52098 0.72455,-0.67678c0.29904,-1.27736 1.68478,-1.74012 1.68478,-1.74012c0.54065,-0.18055 7.01777,-2.35865 7.32019,-2.39344c2.40918,-0.27719 4.75018,1.00896 7.15691,1.30669c1.06294,0.13149 2.17284,-0.57721 3.20111,-0.27757c2.00236,0.58349 3.55379,2.25121 5.52092,2.94425c2.47485,0.87192 4.90081,2.12563 6.84439,3.88849c1.19097,1.08023 3.24872,1.89677 3.31587,3.50326c0.08094,1.93633 -1.86936,3.40219 -2.96028,5.004c-1.01333,1.48789 -2.0387,2.99962 -3.33867,4.24492c-7.46227,7.14842 -15.22389,-1.57059 -21.13234,-6.16073c-1.84262,-1.43149 -3.68525,-2.863 -5.52788,-4.29449l-2.36908,-1.84049c0,0 -1.97424,-1.53375 -0.4405,-3.50799zM297.13497,190.18707c1.78516,1.38686 3.57033,2.77371 5.35549,4.16057c2.99616,2.32765 5.95117,5.11099 9.14031,7.14179c1.06092,0.67558 2.49188,1.06402 3.71822,0.55022c2.37349,-0.99441 2.804,-3.01899 4.59649,-4.89521c0.54095,-0.56622 1.6875,-0.57496 1.9477,-1.31356c0.15877,-0.45064 -1.00688,0.05827 -1.42231,-0.17774c-1.81733,-1.0324 -3.46701,-2.42656 -5.43836,-3.12109c-1.12014,-0.39464 -2.30793,-0.64383 -3.34955,-1.21431c-0.71594,-0.39211 -1.04722,-1.4025 -1.83288,-1.62402c-0.78577,-0.22156 -1.60083,0.52243 -2.41166,0.42723c-2.0338,-0.2388 -3.97269,-1.60277 -6.00044,-1.31711c-1.49449,0.21053 -2.89709,0.8024 -4.30303,1.38323z"/><path d="M210.77703,224.1256c-2.30305,1.82662 -4.27548,3.96474 -6.65468,5.8221c-1.99752,1.55939 -5.06618,2.53675 -6.83138,4.33055c-1.48554,1.50961 -0.97414,2.54307 -1.60262,4.44744c-0.16808,0.50931 -0.95417,0.8944 -0.78628,1.40377c0.14319,0.43447 0.89459,0.19183 1.34262,0.28419c1.82811,0.37685 3.65552,0.75728 5.47991,1.15171c1.30322,0.28175 2.62039,0.50537 3.90967,0.84525c0.61253,0.16148 1.20015,0.90213 1.7837,0.65566c2.36861,-1.00044 2.63609,-3.38726 4.04617,-5.12298c0.67553,-0.83154 1.80153,-1.2647 2.36614,-2.1752c0.40019,-0.64535 0.25067,-1.49788 0.376,-2.24682c0.63194,-2.92302 1.16017,-5.89989 1.90182,-8.79677c0.68619,-2.68026 0.13618,-3.81491 -2.41015,-1.78176l-1.18873,0.7661c0,0 -0.80074,0.51606 -1.73219,0.41676zM211.87671,218.13013c0.75233,-0.57122 1.49079,-1.18517 2.39739,-1.28071c3.68894,-0.38875 6.48085,1.36113 7.37121,5.02408c0.31187,1.28307 -0.40648,2.60981 -0.6501,3.90757c-0.55259,2.94348 -1.26893,5.86938 -1.90182,8.79677c-0.2973,1.2059 -0.2743,2.54011 -0.89188,3.61769c-0.66283,1.15655 -1.98192,1.80054 -2.81141,2.84405c-1.99508,2.50982 -3.73487,5.73045 -6.73156,6.87037c-0.59888,0.2278 -7.38975,-1.3276 -7.99048,-1.45748c-3.09597,-0.66934 -8.69785,-0.94675 -10.34837,-4.32258c-0.28017,-0.57303 0.82129,-6.80285 1.23171,-7.77758c1.94966,-4.63045 5.93809,-5.5648 9.57126,-8.40481c3.11642,-2.43606 5.57266,-5.26274 8.88931,-7.41886c0,0 0.87803,-0.56587 1.86476,-0.39849z"/><path d="M259.56273,226.61806c0.71312,2.74989 1.44598,5.55424 2.60746,7.97747c0.59403,1.23936 1.55704,2.27931 2.14241,3.5228c0.46929,0.9969 0.83948,2.06067 0.99919,3.15088c0.06925,0.47275 -0.81091,1.41074 -0.3334,1.39406c1.00673,-0.03517 1.63331,-1.39952 2.63786,-1.47455c1.19851,-0.08951 2.25776,0.96749 3.4585,1.01922c2.02803,0.08737 5.49829,-1.80892 7.49779,-2.40951c0.43811,-0.1316 1.20801,0.04368 1.31224,-0.40174c0.12221,-0.52222 -0.69595,-0.83585 -0.90727,-1.32878c-0.66289,-1.54618 -0.26397,-3.55926 -1.3155,-4.87242c-0.92871,-1.15978 -2.7133,-1.21717 -4.02516,-1.91471c-3.28687,-1.00249 -5.11517,-1.04075 -7.38918,-4.20481c-0.3996,-0.556 0.4885,-1.55859 0.0159,-2.05401c-0.32979,-0.34572 -0.52437,0.86723 -0.9593,1.06503c-1.13057,0.51419 -2.34834,1.07275 -3.5884,1.00326c-0.73811,-0.04136 -1.45021,-0.23066 -2.15312,-0.47217zM253.98613,221.67515c-0.23104,-0.72472 -0.28167,-1.81817 0.94813,-2.70203c2.03009,-1.45903 3.48911,0.57106 3.48911,0.57106l1.26215,1.98802c2.85674,0.79998 6.38137,-2.07298 8.90457,-0.936c1.24338,0.56027 1.00123,2.56806 1.79713,3.67549c1.22466,1.704 3.31518,1.86245 5.12872,2.37563c0.82504,0.42955 5.57098,2.8379 5.98916,3.34964c0.27906,0.34149 2.03955,5.73252 2.24698,6.58659c0.35297,1.4533 1.40954,3.00435 0.87397,4.40072c-1.32463,3.45355 -6.91377,4.3363 -9.92584,5.22028c-1.19174,0.34975 -2.3464,1.00607 -3.5884,1.00326c-1.20185,-0.00272 -2.25676,-1.00235 -3.4585,-1.01922c-1.69379,-0.02378 -3.47595,1.63682 -5.00148,0.90044c-1.74445,-0.84206 -2.07475,-5.19921 -2.89669,-6.91407c-0.59403,-1.23936 -1.55704,-2.27931 -2.14241,-3.5228c-1.8313,-3.8902 -2.68762,-8.58186 -3.96792,-12.70005c0,0 -0.40342,-1.29765 0.3413,-2.27695z"/></g></g></svg>