<svg version="1.1" xmlns="http://www.w3.org/2000/svg" xmlns:xlink="http://www.w3.org/1999/xlink" width="165.54673" height="130.312" viewBox="0,0,165.54673,130.312"><g transform="translate(-157.22664,-114.844)"><g data-paper-data="{&quot;isPaintingLayer&quot;:true}" fill="#000000" fill-rule="nonzero" stroke="none" stroke-width="0.5" stroke-linecap="butt" stroke-linejoin="miter" stroke-miterlimit="10" stroke-dasharray="" stroke-dashoffset="0" style="mix-blend-mode: normal"><path d="M220.50777,203.52272c0,-0.45313 0.08213,-0.82413 0.21662,-1.12789c-0.86514,-0.66093 -1.71675,-1.33671 -2.48439,-2.10435c-0.90738,-0.90738 -1.33622,-2.2036 -2.16559,-3.18279c-2.02658,-2.39269 -4.26113,-4.62244 -6.65162,-6.65162c-1.01688,-0.86318 -2.43066,-1.25807 -3.28922,-2.27885c-1.01135,-1.20244 -1.28713,-2.88224 -2.15391,-4.19273c-1.07223,-1.62112 -3.09493,-2.48297 -4.09852,-4.14745c-2.79321,-4.63259 -2.37337,-10.18619 -2.37337,-15.31433c0,-5.33333 0,-10.66667 0,-16c0,-2.76789 -0.67004,-6.93192 0.06688,-9.57438c0.25067,-0.89885 3.62921,-7.23855 4.12342,-8.38233c0.47068,-1.08931 0.52471,-2.37035 1.18307,-3.35762c1.30769,-1.961 3.80906,-2.96598 5,-5c0.57263,-0.978 0.387,-2.35605 1.13986,-3.20316c1.13849,-1.28101 2.6415,-2.31834 4.26231,-2.87525c1.36332,-0.46843 2.89773,0.13435 4.324,-0.07499c1.04292,-0.15308 1.95602,-0.85438 3,-1c3.26238,-0.45507 7.08168,-0.03228 10.40046,-0.03228c7.68703,0 15.41321,-0.04229 22.08691,4.24864c1.0758,0.37491 2.25037,0.53881 3.22741,1.12473c0.85834,0.51474 1.31118,1.54864 2.14745,2.09852c3.3239,2.1856 7.51917,2.92105 10.85255,4.90148c0.81055,0.48156 1.19155,1.51493 2,2c0.90388,0.54233 2.09846,0.45379 3,1c2.43835,1.4773 4.55464,4.81557 7.41013,5.7339c2.24517,0.72205 5.22929,-0.14679 6.91354,1.5041c3.23738,3.17325 2.82463,5.21578 2.862,8.88863c0.08431,8.28805 0.9878,17.27933 -1.01873,25.30546c-0.1927,7.44143 -7.39011,14.11004 -12.74452,18.76332c-0.87553,0.76088 -4.12904,3.5094 -4.61012,4.24555c-0.61997,0.9487 -0.40702,2.33867 -1.13986,3.20316c-1.02386,1.20778 -2.49262,1.98074 -3.88839,2.7283c-1.78719,0.95721 -4.05713,0.81874 -5.78405,1.88084c-0.8295,0.51016 -1.20419,1.62845 -2.08258,2.04887c-1.53233,0.73342 -3.24154,1.08768 -4.92629,1.30577c-0.17197,0.02226 -7.00515,0.01873 -8.30546,0.01873c-6.66667,0 -13.33333,0 -20,0h-0.46779c-0.33708,0.07836 -0.65701,0.06378 -0.94522,0h-2.58699c0,0 -2.5,0 -2.5,-2.5zM226.98853,201.02272c6.66667,0 13.35257,0 20.01924,0c3.30936,0 7.71567,0.94241 10.76825,-0.6755c0.80569,-0.42703 1.13117,-1.48928 1.91742,-1.95113c2.12186,-1.2464 6.72496,-1.19679 8.32756,-3.39086c0.57531,-0.78764 0.31248,-1.98973 0.86014,-2.79684c1.0592,-1.56101 3.95845,-3.98497 5.58774,-5.39449c4.22841,-3.65808 11.26178,-9.6452 11.05762,-15.59664c1.75084,-7.00337 0.98127,-14.48457 0.98127,-21.69454c0,-2.44095 0.79087,-6.09192 -1.138,-8.11137c-1.17663,-1.23188 -3.47447,0.055 -5.08646,-0.4959c-1.3662,-0.4669 -2.45177,-1.52576 -3.66229,-2.3126c-1.76563,-1.14767 -3.11664,-2.87876 -4.92758,-3.9535c-0.90648,-0.53797 -2.09612,-0.45767 -3,-1c-0.80845,-0.48507 -1.19397,-1.51091 -2,-2c-3.37024,-2.04501 -7.73155,-2.87254 -11.14745,-5.09852c-0.74139,-0.48313 -1.09387,-1.446 -1.85255,-1.90148c-0.83091,-0.49885 -1.84839,-0.58351 -2.77259,-0.87527c-5.97683,-3.95657 -12.98027,-3.75136 -19.91309,-3.75136c-3.02995,0 -6.62012,-0.46917 -9.59954,-0.03228c-1.04294,0.15293 -1.95588,0.85533 -3,1c-1.78126,0.24681 -4.10219,-0.93003 -5.41369,1.04977c-0.53866,0.81314 -0.35032,1.96532 -0.86014,2.79684c-1.87016,3.05029 -2.98267,1.97293 -5,5c-0.51127,0.76717 -0.45643,1.79386 -0.81693,2.64238c-1.11407,2.62226 -3.07006,4.8851 -3.87658,7.61767c-0.65892,2.23248 0.06688,6.08688 0.06688,8.42562c0,5.33333 0,10.66667 0,16c0,4.05559 -0.58435,8.97361 1.62663,12.68567c0.93527,1.57025 2.88236,2.33538 3.90148,3.85255c0.78645,1.17079 0.94901,2.71892 1.84609,3.80727c0.68078,0.82593 1.89187,1.03193 2.71078,1.72115c0.17118,0.14407 7.24487,7.22617 7.34838,7.34838c0.72426,0.8551 1.04203,2.02482 1.83441,2.81721c1.5873,1.5873 3.52576,2.78971 5.213,4.26777z"/><path d="M220.50777,155.52272c0,-1.38071 1.11929,-2.5 2.5,-2.5c1.38071,0 2.5,1.11929 2.5,2.5c0,1.38071 -1.11929,2.5 -2.5,2.5c-1.38071,0 -2.5,-1.11929 -2.5,-2.5z"/><path d="M258.50777,157.52272c0,-1.38071 1.11929,-2.5 2.5,-2.5c1.38071,0 2.5,1.11929 2.5,2.5c0,1.38071 -1.11929,2.5 -2.5,2.5c-1.38071,0 -2.5,-1.11929 -2.5,-2.5z"/><path d="M275.24383,171.40468c1.11803,2.23607 -1.11803,3.3541 -1.11803,3.3541l-1.35027,0.5317c-2.3774,2.3551 -4.0306,5.0076 -6.45344,7.35886c-7.53316,2.58124 -16.37511,1.37337 -24.31433,1.37337c-6.19217,0 -13.31569,0.97874 -19.40046,-0.03228c-5.43377,-0.90285 -10.99929,-4.18695 -11.09954,-10.46772c-0.02104,-1.31814 0.75219,-2.52705 1.12829,-3.79057c0,0 0.79057,-2.37171 3.16228,-1.58114c2.37171,0.79057 1.58114,3.16228 1.58114,3.16228c-1.83245,4.64452 1.65383,7.00964 6.02875,7.74171c3.01239,0.50407 6.5333,-0.03228 9.59954,-0.03228c5.33333,0 10.66667,0 16,0c4.72554,0 10.15718,0.80371 14.68567,-0.62663c2.02227,-2.13557 3.45837,-4.53635 5.54656,-6.64114l2.64973,-1.4683c0,0 2.23607,-1.11803 3.3541,1.11803z"/><path d="M194.90325,183.01111c2.04434,1.43899 0.60535,3.48333 0.60535,3.48333l-1.61937,2.26994c-0.34958,0.78112 -0.91075,1.13545 -1.45123,1.28165c-0.56271,0.36209 -1.11163,0.73724 -1.48843,1.27548c-0.6181,0.88291 -0.32087,2.24219 -1.00869,3.07195c-1.68785,2.03615 -4.45408,2.85809 -6.59774,4.40711c-2.58046,4.4274 -4.97648,6.96784 -9.57711,9.33423c-1.12341,0.57784 -2.16119,1.56765 -3.42313,1.62655c-1.65166,0.0771 -3.21073,-0.79412 -4.80219,-1.24262c-2.29024,-0.64543 -7.12067,-1.66324 -8.06112,-4.54747c-1.54793,-4.74736 4.39986,-7.98225 7.21866,-10.23893c4.44923,-3.56198 8.20554,-5.84521 13.34016,-8.01678c1.40333,-0.5935 2.58266,-1.7098 4.05055,-2.11828c2.94087,-0.81839 5.80603,0.17636 8.58,1.10398l0.75095,-1.08476c0,0 1.43899,-2.04434 3.48333,-0.60535zM186.76249,188.58737c-1.20908,-0.33487 -2.40826,-0.49549 -3.37847,-0.16075c-5.88005,2.02876 -10.71145,5.32654 -15.56091,9.20893c-1.67766,1.34311 -3.39404,2.63913 -5.03491,4.02696c-0.22695,0.19195 -0.75186,0.42986 -0.58316,0.6746c0.94056,1.3646 3.19741,0.8786 4.77302,1.39265c0.96628,0.31525 1.84372,1.05657 2.86013,1.05711c0.62712,0.00034 1.01414,-0.74234 1.5579,-1.05474c4.17921,-2.40099 5.71284,-4.11331 8.24065,-8.28756c1.5128,-1.13418 2.95675,-2.36653 4.5384,-3.40256c0.57363,-0.37574 1.48049,-0.26015 1.89138,-0.80915c0.54594,-0.72945 0.19236,-1.89098 0.69598,-2.6455z"/><path d="M291.37431,186.4679c0.32373,-0.20205 0.62889,-0.32384 0.9136,-0.38516c0.72149,-1.09568 2.1818,-1.05179 2.1818,-1.05179c0.56974,0.01712 7.40061,0.20811 7.69646,0.27982c2.35683,0.57125 4.11016,2.58628 6.26628,3.69629c0.95226,0.49024 2.23855,0.20811 3.10024,0.8442c1.67798,1.23866 2.55856,3.33933 4.16567,4.66866c2.02191,1.67243 3.86617,3.68633 5.08197,6.01162c0.74501,1.42487 2.39455,2.90138 1.90317,4.43235c-0.59227,1.8453 -2.92862,2.54805 -4.50531,3.67498c-1.46455,1.04678 -2.94863,2.11178 -4.59849,2.83195c-9.47076,4.134 -13.74659,-6.72791 -17.70798,-13.07508c-1.23541,-1.97944 -2.47082,-3.9589 -3.70623,-5.93834l-1.58838,-2.545c0,0 -1.32365,-2.12084 0.79718,-3.44449zM296.52275,189.99526c1.19688,1.91772 2.39377,3.83544 3.59065,5.75316c2.00881,3.21863 3.82174,6.85076 6.11412,9.85738c0.7626,1.0002 1.97159,1.85861 3.29991,1.79959c2.57085,-0.11422 3.6736,-1.86585 6.00346,-3.00821c0.70312,-0.34475 1.78225,0.04272 2.28136,-0.5607c0.30453,-0.36816 -0.96513,-0.29279 -1.27359,-0.65766c-1.3494,-1.59614 -2.4166,-3.47396 -4.02715,-4.80614c-0.91513,-0.75696 -1.94395,-1.40075 -2.72471,-2.29565c-0.53664,-0.61509 -0.49888,-1.67774 -1.15982,-2.15678c-0.66103,-0.47912 -1.68277,-0.06212 -2.41094,-0.43129c-1.82644,-0.926 -3.17551,-2.87529 -5.17726,-3.30696c-1.47533,-0.31816 -2.99602,-0.24669 -4.51603,-0.18674z"/><path d="M215.17052,221.06387c-1.86505,2.27204 -3.34113,4.77868 -5.27412,7.09685c-1.62289,1.94628 -4.41573,3.55002 -5.76201,5.67632c-1.13299,1.78943 -0.41476,2.69149 -0.62663,4.68567c-0.05666,0.53333 -0.74362,1.07583 -0.47189,1.53822c0.23177,0.3944 0.91492,-0.00154 1.37235,-0.00594c1.86646,-0.01796 3.733,-0.03228 5.59954,-0.03228c1.33333,0 2.66801,-0.05977 4,0c0.63282,0.0284 1.36368,0.62815 1.88197,0.26393c2.10372,-1.47837 1.86079,-3.86781 2.87225,-5.86231c0.48456,-0.95551 1.4936,-1.61683 1.85306,-2.62608c0.25478,-0.71534 -0.07151,-1.51703 -0.10727,-2.27554c0,-2.99055 -0.11275,-6.01182 0,-9c0.10432,-2.76474 -0.67304,-3.75754 -2.73223,-1.23223l-1,1c0,0 -0.67361,0.67361 -1.60501,0.77338zM214.97844,214.97141c0.61463,-0.7173 1.20668,-1.47343 2.07262,-1.75839c3.52349,-1.15949 6.62213,-0.0391 8.26641,3.35299c0.57596,1.18819 0.15419,2.63677 0.1903,3.95671c0.08189,2.99378 0,6.00498 0,9c-0.03576,1.24149 0.26865,2.54071 -0.10727,3.72446c-0.40347,1.2705 -1.55669,2.17869 -2.14694,3.37392c-1.41967,2.87473 -2.43961,6.39028 -5.12775,8.13769c-0.53722,0.34921 -7.50342,0.26393 -8.11803,0.26393c-3.1675,0 -8.7015,0.9126 -11.02811,-2.03822c-0.39493,-0.50089 -0.63479,-6.82278 -0.43961,-7.86223c0.92716,-4.93788 4.62808,-6.69394 7.57908,-10.23755c2.53127,-3.03959 4.33473,-6.32148 7.12087,-9.12976c0,0 0.73863,-0.73863 1.73844,-0.78354z"/><path d="M261.36743,217.82536c-0.1354,2.83762 -0.26811,5.73311 0.12161,8.3919c0.19932,1.35984 0.81018,2.6388 1,4c0.15218,1.09128 0.18988,2.21699 0.01873,3.30546c-0.07422,0.47199 -1.19316,1.1064 -0.73223,1.23223c0.97178,0.26529 1.97516,-0.85154 2.95669,-0.62496c1.17105,0.27033 1.86875,1.59414 3,2c1.91066,0.6855 5.78743,-0.09508 7.87508,-0.07499c0.45743,0.0044 1.14058,0.40034 1.37235,0.00594c0.27173,-0.4624 -0.41643,-1.00477 -0.47189,-1.53822c-0.17399,-1.67327 0.80458,-3.47716 0.1903,-5.04329c-0.54253,-1.3832 -2.22963,-1.9678 -3.27527,-3.02335c-2.84107,-1.93308 -4.57559,-2.51238 -5.80776,-6.20889c-0.21652,-0.64956 0.92918,-1.3433 0.62496,-1.95669c-0.21229,-0.42804 -0.75819,0.67246 -1.23223,0.73223c-1.23225,0.15537 -2.56094,0.32723 -3.72446,-0.10727c-0.69255,-0.25862 -1.31635,-0.65079 -1.91588,-1.09009zM257.50965,211.44975c-0.00547,-0.76064 0.27079,-1.81982 1.70755,-2.29874c2.37171,-0.79057 3.16228,1.58114 3.16228,1.58114l0.61506,2.27309c2.49046,1.612 6.70909,-0.08507 8.781,1.74972c1.02099,0.90414 0.1937,2.74952 0.62496,4.04331c0.66358,1.99075 2.61281,2.76267 4.19224,3.79111c0.66032,0.65512 4.47733,4.36383 4.72473,4.97665c0.1651,0.40894 0.24577,6.07957 0.1903,6.95671c-0.09439,1.49257 0.45408,3.28736 -0.47189,4.46178c-2.29018,2.90461 -7.88941,2.08829 -11.02811,2.03822c-1.24184,-0.01981 -2.53929,0.26413 -3.72446,-0.10727c-1.14686,-0.35939 -1.85745,-1.62713 -3,-2c-1.61037,-0.52555 -3.80517,0.53111 -5.04331,-0.62496c-1.41582,-1.32198 -0.43771,-5.58075 -0.7135,-7.46231c-0.19932,-1.35984 -0.81018,-2.6388 -1,-4c-0.59384,-4.25848 -0.01873,-8.99285 -0.01873,-13.30546c0,0 0,-1.35891 1.00188,-2.07297z"/></g></g></svg>