<svg version="1.1" xmlns="http://www.w3.org/2000/svg" xmlns:xlink="http://www.w3.org/1999/xlink" width="155.86919" height="123.312" viewBox="0,0,155.86919,123.312"><g transform="translate(-162.06541,-118.344)"><g data-paper-data="{&quot;isPaintingLayer&quot;:true}" fill="#000000" fill-rule="nonzero" stroke="none" stroke-width="0.5" stroke-linecap="butt" stroke-linejoin="miter" stroke-miterlimit="10" stroke-dasharray="" stroke-dashoffset="0" style="mix-blend-mode: normal"><path d="M219.57412,207.02272c0,-0.45313 0.08213,-0.82413 0.21662,-1.12789c-0.86514,-0.66093 -1.71675,-1.33671 -2.48439,-2.10435c-0.90738,-0.90738 -1.33622,-2.2036 -2.16559,-3.18279c-2.02658,-2.39269 -4.26113,-4.62244 -6.65162,-6.65162c-1.01688,-0.86318 -2.43066,-1.25807 -3.28922,-2.27885c-1.01135,-1.20244 -1.28713,-2.88224 -2.15391,-4.19273c-1.07223,-1.62112 -3.09493,-2.48297 -4.09852,-4.14745c-2.79321,-4.63259 -2.37337,-10.18619 -2.37337,-15.31433c0,-5.33333 0,-10.66667 0,-16c0,-2.76789 -0.67004,-6.93192 0.06688,-9.57438c0.25067,-0.89885 3.62921,-7.23855 4.12342,-8.38233c0.47068,-1.08931 0.52471,-2.37035 1.18307,-3.35762c1.30769,-1.961 3.80906,-2.96598 5,-5c0.57263,-0.978 0.387,-2.35605 1.13986,-3.20316c1.13849,-1.28101 2.6415,-2.31834 4.26231,-2.87525c1.36332,-0.46843 2.89773,0.13435 4.324,-0.07499c1.04292,-0.15308 1.95602,-0.85438 3,-1c3.26238,-0.45507 7.08168,-0.03228 10.40046,-0.03228c7.68703,0 15.41321,-0.04229 22.08691,4.24864c1.0758,0.37491 2.25037,0.53881 3.22741,1.12473c0.85834,0.51474 1.31118,1.54864 2.14745,2.09852c3.3239,2.1856 7.51917,2.92105 10.85255,4.90148c0.81055,0.48156 1.19155,1.51493 2,2c0.90388,0.54233 2.09846,0.45379 3,1c2.43835,1.4773 4.55464,4.81557 7.41013,5.7339c2.24517,0.72205 5.22929,-0.14679 6.91354,1.5041c3.23738,3.17325 2.82463,5.21578 2.862,8.88863c0.08431,8.28805 0.9878,17.27933 -1.01873,25.30546c-0.1927,7.44143 -7.39011,14.11004 -12.74452,18.76332c-0.87553,0.76088 -4.12904,3.5094 -4.61012,4.24555c-0.61997,0.9487 -0.40702,2.33867 -1.13986,3.20316c-1.02386,1.20778 -2.49262,1.98074 -3.88839,2.7283c-1.78719,0.95721 -4.05713,0.81874 -5.78405,1.88084c-0.8295,0.51016 -1.20419,1.62845 -2.08258,2.04887c-1.53233,0.73342 -3.24154,1.08768 -4.92629,1.30577c-0.17197,0.02226 -7.00515,0.01873 -8.30546,0.01873c-6.66667,0 -13.33333,0 -20,0h-0.46779c-0.33708,0.07836 -0.65701,0.06378 -0.94522,0h-2.58699c0,0 -2.5,0 -2.5,-2.5zM226.05488,204.52272c6.66667,0 13.35257,0 20.01924,0c3.30936,0 7.71567,0.94241 10.76825,-0.6755c0.80569,-0.42703 1.13117,-1.48928 1.91742,-1.95113c2.12186,-1.2464 6.72496,-1.19679 8.32756,-3.39086c0.57531,-0.78764 0.31248,-1.98973 0.86014,-2.79684c1.0592,-1.56101 3.95845,-3.98497 5.58774,-5.39449c4.22841,-3.65808 11.26178,-9.6452 11.05762,-15.59664c1.75084,-7.00337 0.98127,-14.48457 0.98127,-21.69454c0,-2.44095 0.79087,-6.09192 -1.138,-8.11137c-1.17663,-1.23188 -3.47447,0.055 -5.08646,-0.4959c-1.3662,-0.4669 -2.45177,-1.52576 -3.66229,-2.3126c-1.76563,-1.14767 -3.11664,-2.87876 -4.92758,-3.9535c-0.90648,-0.53797 -2.09612,-0.45767 -3,-1c-0.80845,-0.48507 -1.19397,-1.51091 -2,-2c-3.37024,-2.04501 -7.73155,-2.87254 -11.14745,-5.09852c-0.74139,-0.48313 -1.09387,-1.446 -1.85255,-1.90148c-0.83091,-0.49885 -1.84839,-0.58351 -2.77259,-0.87527c-5.97683,-3.95657 -12.98027,-3.75136 -19.91309,-3.75136c-3.02995,0 -6.62012,-0.46917 -9.59954,-0.03228c-1.04294,0.15293 -1.95588,0.85533 -3,1c-1.78126,0.24681 -4.10219,-0.93003 -5.41369,1.04977c-0.53866,0.81314 -0.35032,1.96532 -0.86014,2.79684c-1.87016,3.05029 -2.98267,1.97293 -5,5c-0.51127,0.76717 -0.45643,1.79386 -0.81693,2.64238c-1.11407,2.62226 -3.07006,4.8851 -3.87658,7.61767c-0.65892,2.23248 0.06688,6.08688 0.06688,8.42562c0,5.33333 0,10.66667 0,16c0,4.05559 -0.58435,8.97361 1.62663,12.68567c0.93527,1.57025 2.88236,2.33538 3.90148,3.85255c0.78645,1.17079 0.94901,2.71892 1.84609,3.80727c0.68078,0.82593 1.89187,1.03193 2.71078,1.72115c0.17118,0.14407 7.24487,7.22617 7.34838,7.34838c0.72426,0.8551 1.04203,2.02482 1.83441,2.81721c1.5873,1.5873 3.52576,2.78971 5.213,4.26777z"/><path d="M219.57412,159.02272c0,-1.38071 1.11929,-2.5 2.5,-2.5c1.38071,0 2.5,1.11929 2.5,2.5c0,1.38071 -1.11929,2.5 -2.5,2.5c-1.38071,0 -2.5,-1.11929 -2.5,-2.5z"/><path d="M257.57412,161.02272c0,-1.38071 1.11929,-2.5 2.5,-2.5c1.38071,0 2.5,1.11929 2.5,2.5c0,1.38071 -1.11929,2.5 -2.5,2.5c-1.38071,0 -2.5,-1.11929 -2.5,-2.5z"/><path d="M274.31018,174.90468c1.11803,2.23607 -1.11803,3.3541 -1.11803,3.3541l-1.35027,0.5317c-2.3774,2.3551 -4.0306,5.0076 -6.45344,7.35886c-7.53316,2.58124 -16.37511,1.37337 -24.31433,1.37337c-6.19217,0 -13.31569,0.97874 -19.40046,-0.03228c-5.43377,-0.90285 -10.99929,-4.18695 -11.09954,-10.46772c-0.02104,-1.31814 0.75219,-2.52705 1.12829,-3.79057c0,0 0.79057,-2.37171 3.16228,-1.58114c2.37171,0.79057 1.58114,3.16228 1.58114,3.16228c-1.83245,4.64452 1.65383,7.00964 6.02875,7.74171c3.01239,0.50407 6.5333,-0.03228 9.59954,-0.03228c5.33333,0 10.66667,0 16,0c4.72554,0 10.15718,0.80371 14.68567,-0.62663c2.02227,-2.13557 3.45837,-4.53635 5.54656,-6.64114l2.64973,-1.4683c0,0 2.23607,-1.11803 3.3541,1.11803z"/><path d="M188.19133,180.63111c2.46457,0.41943 2.04513,2.884 2.04513,2.884l-0.48521,2.74583c0.0205,0.85553 -0.33362,1.41682 -0.75862,1.78134c-0.35218,0.56897 -0.68629,1.14379 -0.79486,1.79178c-0.1781,1.06295 0.67503,2.16211 0.41113,3.20707c-0.6476,2.56425 -2.79109,4.49637 -4.05974,6.81698c-0.42456,5.1069 -1.49447,8.43106 -4.6294,12.54661c-0.7655,1.00496 -1.27647,2.34497 -2.39029,2.94108c-1.4578,0.78021 -3.24003,0.66453 -4.86963,0.94438c-2.34512,0.40272 -7.14352,1.56219 -9.23339,-0.63683c-3.43985,-3.61952 0.53751,-9.09869 2.11116,-12.3486c2.48386,-5.1297 4.89239,-8.80692 8.59318,-12.97636c1.01145,-1.13953 1.59578,-2.65463 2.74511,-3.65492c2.30266,-2.00406 5.31706,-2.3388 8.22026,-2.69491l0.21118,-1.30232c0,0 0.41943,-2.46457 2.884,-2.04513zM183.24169,189.16737c-1.23553,0.21791 -2.38715,0.58885 -3.11895,1.30846c-4.43514,4.36124 -7.37766,9.41686 -10.08497,15.008c-0.93659,1.93424 -1.92838,3.84264 -2.81251,5.80142c-0.12228,0.27092 -0.49377,0.71152 -0.23619,0.85987c1.43617,0.82717 3.26436,-0.58254 4.90784,-0.79639c1.00791,-0.13115 2.11893,0.16053 3.03669,-0.27628c0.56626,-0.26951 0.59609,-1.10645 0.95254,-1.62241c2.73962,-3.96548 3.38733,-6.17104 3.87329,-11.02677c0.87765,-1.67471 1.65092,-3.40842 2.63294,-5.02415c0.35616,-0.58598 1.22453,-0.87181 1.35924,-1.54418c0.17898,-0.89337 -0.63993,-1.78977 -0.50994,-2.68757z"/><path d="M306.91492,182.11599c0.36687,0.10502 0.66172,0.25001 0.89797,0.42033c1.29682,-0.19826 2.24245,0.9154 2.24245,0.9154c0.36894,0.43449 4.80288,5.63423 4.94782,5.90194c1.15461,2.13257 0.83298,4.78418 1.45313,7.12862c0.27389,1.03543 1.345,1.80149 1.44994,2.86738c0.20434,2.07561 -0.76551,4.13659 -0.67596,6.22031c0.11266,2.62153 -0.14723,5.33991 -1.0593,7.80025c-0.55889,1.50763 -0.5502,3.72144 -2.01608,4.38215c-1.76685,0.79635 -3.85366,-0.4676 -5.74656,-0.88338c-1.75827,-0.3862 -3.54314,-0.7747 -5.18304,-1.51728c-9.41355,-4.26266 -4.21299,-14.7134 -2.15392,-21.90641c0.64215,-2.24323 1.2843,-4.48647 1.92645,-6.72969l0.82562,-2.88415c0,0 0.68802,-2.40346 3.09148,-1.71544zM307.74467,188.30148c-0.62212,2.17328 -1.24425,4.34656 -1.86637,6.51983c-1.04415,3.64755 -2.52653,7.42666 -3.22331,11.14274c-0.2318,1.23621 -0.05928,2.70889 0.87432,3.65561c1.80692,1.8323 3.84618,1.47772 6.25505,2.44238c0.72696,0.29112 1.16215,1.35191 1.94452,1.31828c0.47735,-0.02051 -0.42911,-0.91272 -0.36484,-1.38616c0.28119,-2.0711 0.96056,-4.12137 0.87083,-6.20955c-0.05099,-1.18653 -0.26215,-2.38166 -0.12071,-3.56083c0.09722,-0.81047 0.91151,-1.49427 0.82446,-2.3059c-0.08706,-0.81175 -1.0811,-1.29104 -1.29477,-2.07899c-0.53593,-1.97639 0.00769,-4.28381 -1.0127,-6.05924c-0.75204,-1.30853 -1.82376,-2.38974 -2.88647,-3.47817z"/><path d="M215.23687,217.56387c-1.86505,2.27204 -3.34113,4.77868 -5.27412,7.09685c-1.62289,1.94628 -4.41573,3.55002 -5.76201,5.67632c-1.13299,1.78943 -0.41476,2.69149 -0.62663,4.68567c-0.05666,0.53333 -0.74362,1.07583 -0.47189,1.53822c0.23177,0.3944 0.91492,-0.00154 1.37235,-0.00594c1.86646,-0.01796 3.733,-0.03228 5.59954,-0.03228c1.33333,0 2.66801,-0.05977 4,0c0.63282,0.0284 1.36368,0.62815 1.88197,0.26393c2.10372,-1.47837 1.86079,-3.86781 2.87225,-5.86231c0.48456,-0.95551 1.4936,-1.61683 1.85306,-2.62608c0.25478,-0.71534 -0.07151,-1.51703 -0.10727,-2.27554c0,-2.99055 -0.11275,-6.01182 0,-9c0.10432,-2.76474 -0.67304,-3.75754 -2.73223,-1.23223l-1,1c0,0 -0.67361,0.67361 -1.60501,0.77338zM215.04479,211.47141c0.61463,-0.7173 1.20668,-1.47343 2.07262,-1.75839c3.52349,-1.15949 6.62213,-0.0391 8.26641,3.35299c0.57596,1.18819 0.15419,2.63677 0.1903,3.95671c0.08189,2.99378 0,6.00498 0,9c-0.03576,1.24149 0.26865,2.54071 -0.10727,3.72446c-0.40347,1.2705 -1.55669,2.17869 -2.14694,3.37392c-1.41967,2.87473 -2.43961,6.39028 -5.12775,8.13769c-0.53722,0.34921 -7.50342,0.26393 -8.11803,0.26393c-3.1675,0 -8.7015,0.9126 -11.02811,-2.03822c-0.39493,-0.50089 -0.63479,-6.82278 -0.43961,-7.86223c0.92716,-4.93788 4.62808,-6.69394 7.57908,-10.23755c2.53127,-3.03959 4.33473,-6.32148 7.12087,-9.12976c0,0 0.73863,-0.73863 1.73844,-0.78354z"/><path d="M261.43378,216.32536c-0.1354,2.83762 -0.26811,5.73311 0.12161,8.3919c0.19932,1.35984 0.81018,2.6388 1,4c0.15218,1.09128 0.18988,2.21699 0.01873,3.30546c-0.07422,0.47199 -1.19316,1.1064 -0.73223,1.23223c0.97178,0.26529 1.97516,-0.85154 2.95669,-0.62496c1.17105,0.27033 1.86875,1.59414 3,2c1.91066,0.6855 5.78743,-0.09508 7.87508,-0.07499c0.45743,0.0044 1.14058,0.40034 1.37235,0.00594c0.27173,-0.4624 -0.41643,-1.00477 -0.47189,-1.53822c-0.17399,-1.67327 0.80458,-3.47716 0.1903,-5.04329c-0.54253,-1.3832 -2.22963,-1.9678 -3.27527,-3.02335c-2.84107,-1.93308 -4.57559,-2.51238 -5.80776,-6.20889c-0.21652,-0.64956 0.92918,-1.3433 0.62496,-1.95669c-0.21229,-0.42804 -0.75819,0.67246 -1.23223,0.73223c-1.23225,0.15537 -2.56094,0.32723 -3.72446,-0.10727c-0.69255,-0.25862 -1.31635,-0.65079 -1.91588,-1.09009zM257.576,209.94975c-0.00547,-0.76064 0.27079,-1.81982 1.70755,-2.29874c2.37171,-0.79057 3.16228,1.58114 3.16228,1.58114l0.61506,2.27309c2.49046,1.612 6.70909,-0.08507 8.781,1.74972c1.02099,0.90414 0.1937,2.74952 0.62496,4.04331c0.66358,1.99075 2.61281,2.76267 4.19224,3.79111c0.66032,0.65512 4.47733,4.36383 4.72473,4.97665c0.1651,0.40894 0.24577,6.07957 0.1903,6.95671c-0.09439,1.49257 0.45408,3.28736 -0.47189,4.46178c-2.29018,2.90461 -7.88941,2.08829 -11.02811,2.03822c-1.24184,-0.01981 -2.53929,0.26413 -3.72446,-0.10727c-1.14686,-0.35939 -1.85745,-1.62713 -3,-2c-1.61037,-0.52555 -3.80517,0.53111 -5.04331,-0.62496c-1.41582,-1.32198 -0.43771,-5.58075 -0.7135,-7.46231c-0.19932,-1.35984 -0.81018,-2.6388 -1,-4c-0.59384,-4.25848 -0.01873,-8.99285 -0.01873,-13.30546c0,0 0,-1.35891 1.00188,-2.07297z"/></g></g></svg>