<svg version="1.1" xmlns="http://www.w3.org/2000/svg" xmlns:xlink="http://www.w3.org/1999/xlink" width="185.34185" height="130.44899" viewBox="0,0,185.34185,130.44899"><g transform="translate(-147.32908,-114.7755)"><g data-paper-data="{&quot;isPaintingLayer&quot;:true}" fill="#000000" fill-rule="nonzero" stroke="none" stroke-width="0.5" stroke-linecap="butt" stroke-linejoin="miter" stroke-miterlimit="10" stroke-dasharray="" stroke-dashoffset="0" style="mix-blend-mode: normal"><path d="M236.65858,161.27804c0,0 0,-2.5 2.5,-2.5c2.5,0 2.5,2.5 2.5,2.5c0,3 0,6 0,9v1c0,0 0,0.14731 -0.03576,0.3704c2.75718,1.97988 5.32247,3.95317 8.54714,5.34331c2.15629,0.92957 4.55156,1.17204 6.77919,1.91458c6.70069,2.23356 13.60696,3.87789 20.51489,4.89044c6.21954,0.91164 13.39791,-0.01873 19.69454,-0.01873h1c0,0 1.55381,0 2.21148,1.22497c0.62043,-0.69105 1.21081,-1.41625 1.76041,-2.18675c0.86567,-1.21361 1.17222,-2.76024 2,-4c0.47426,-0.71029 1.45513,-1.01403 1.85261,-1.76997c1.60505,-3.05255 0.6755,-8.58044 0.6755,-11.76825c0,-3.10142 0.85019,-8.96172 0.1903,-12.04329c-0.34827,-1.62636 -2.6923,-1.95528 -4.07705,-2.87658c-3.31546,-2.20584 -5.94405,-3.14486 -9.63739,-4.79953c-2.60021,-1.16493 -5.31255,-2.55508 -7.56083,-4.34724c-1.96246,-1.56432 -3.57799,-4.55487 -5.72936,-5.80673c-3.18723,-1.85461 -6.97538,-2.99699 -10.14745,-5.09852c-0.63292,-0.41932 -0.76034,-1.52658 -1.49493,-1.71841c-1.53792,-0.4016 -3.22616,0.47029 -4.76775,0.08303c-1.26211,-0.31705 -2.09103,-1.59334 -3.28692,-2.10644c-2.15789,-0.92585 -4.55114,-1.1733 -6.77919,-1.91458c-2.78668,-0.92964 -4.96999,-1.60151 -7.75114,-2.85044c-1.3809,-0.62012 -2.57163,-1.69219 -4.03268,-2.08814c-1.10233,-0.29874 -2.28357,0.05659 -3.42562,0.06688c-2.12917,0.01918 -7.17753,-0.85451 -9.27554,-0.10727c-1.00925,0.35946 -1.66988,1.36986 -2.62608,1.85306c-0.86874,0.439 -1.95021,0.37872 -2.78405,0.88084c-0.80768,0.48636 -1.18945,1.51844 -2,2c-3.15157,1.87241 -7.78814,2.30973 -10.65982,4.74757c-0.91622,0.7778 -1.07347,2.2345 -2,3c-1.06861,0.88289 -2.74293,0.82839 -3.76587,1.76381c-0.54456,0.49797 -0.30852,1.44468 -0.51693,2.15257c-0.5577,1.89434 -1.57808,3.66224 -1.90399,5.60989c-0.44355,2.6507 0.03228,5.90833 0.03228,8.59954c0,3.34078 -0.45147,7.28238 -0.03228,10.59954c0.32812,2.59647 1.56737,2.88067 2.77807,5.30208c0.4714,0.94281 0.53144,2.05578 1,3c1.30066,2.62102 2.82229,3.28108 4.0405,6.08699c1.06624,2.45589 1.24966,5.32662 2.74182,7.54961c1.34596,2.00518 3.75891,3.13803 5.09852,5.14745c0.48555,0.72833 0.02218,1.9276 0.64114,2.54656c0.61896,0.61896 1.82218,0.14971 2.54656,0.64114c2.24976,1.52626 3.59471,4.10159 5.27991,6.04417c1.63921,-1.21962 3.17353,0.31469 3.17353,0.31469l1.54656,1.64114c2.0508,0.64775 4.34091,0.14766 6.41013,0.7339c1.15634,0.32761 1.84935,1.65296 3,2c1.0459,0.31545 2.18327,-0.0886 3.27554,-0.10727c3.33009,-0.05692 6.6697,0 10,0c4.0166,0 8.66423,0.69079 12.59954,0.03228c2.07928,-0.34793 3.91463,-1.69071 6,-2c4.72558,-0.70088 10.72204,-0.54181 15.16871,-2.70778c2.19698,-1.07015 4.87638,-5.28252 6.64677,-6.75786c0.62006,-0.51671 1.2406,-1.03522 1.8543,-1.56313c-6.34454,0.05956 -13.35026,0.84575 -19.57478,-0.02224c-8.33841,-1.16277 -16.26022,-3.73202 -24.39351,-6.08097c-1.42637,-0.41194 -2.94669,-0.53178 -4.31241,-1.11401c-4.27386,-1.82203 -7.53766,-4.66772 -11.37537,-7.20616c0,0 -2.08013,-1.38675 -0.69338,-3.46688c0.18339,-0.27508 0.3789,-0.48953 0.58013,-0.65458c0,-2.84092 0,-6.2942 0,-8.95867zM232.63377,204.72375c-0.2806,0.05429 -0.47519,0.05429 -0.47519,0.05429c-1.26352,-0.04276 -2.62872,0.37012 -3.79057,-0.12829c-5.32458,-2.28415 -5.27555,-6.46566 -9.52376,-9.24508c-1.03518,-0.67728 -2.57871,-0.48413 -3.45344,-1.35886c-0.87473,-0.87473 -0.67267,-2.42415 -1.35886,-3.45344c-1.2753,-1.91295 -3.63067,-2.93662 -4.90148,-4.85255c-1.6687,-2.51581 -2.08421,-5.66908 -3.25818,-8.45039c-2.22801,-5.27849 -7.26595,-9.6997 -8.18143,-15.61093c-0.53969,-3.48477 -0.03228,-7.86233 -0.03228,-11.40046c0,-5.75104 0.14476,-10.3207 2.12829,-15.79057c0.46856,-1.29213 0.54181,-2.84585 1.48307,-3.84743c1.09306,-1.16311 3.01193,-1.20963 4.23413,-2.23619c0.9203,-0.77298 1.07078,-2.23776 2,-3c3.23324,-2.65223 7.91623,-3.17483 11.34018,-5.25243c0.80603,-0.48909 1.19084,-1.51612 2,-2c0.97415,-0.58254 2.19896,-0.61512 3.21595,-1.11916c1.19438,-0.59196 2.10342,-1.74347 3.37392,-2.14694c0.42844,-0.13606 5.94107,-0.10727 6.72446,-0.10727c0.652,0 8.2401,-0.01949 8.57438,0.06688c4.01455,1.03723 8.17026,3.71389 12.21619,5.06141c2.37627,0.79368 4.91767,1.09946 7.22081,2.08542c1.01385,0.43402 1.64285,1.62731 2.71308,1.89356c1.69271,0.4211 3.56411,-0.42677 5.23225,0.08303c1.08014,0.3301 1.5569,1.66788 2.50507,2.28159c3.06577,1.98436 6.82318,3.04153 9.85255,4.90148c2.42702,1.49012 4.05622,4.41391 6.27064,6.19327c1.79317,1.44087 4.40588,2.74905 6.43917,3.65276c4.74856,2.11051 9.54654,3.87484 13.56083,7.34724c1.01734,0.88001 2.30745,1.69787 2.72473,2.97665c1.03221,3.16329 0.1903,10.52174 0.1903,13.95671c0,4.59686 0.75888,9.91416 -1.3245,14.23175c-0.44847,0.92941 -1.57554,1.37101 -2.14739,2.23003c-0.82608,1.24089 -1.13278,2.7875 -2,4c-2.37179,3.3161 -5.39008,5.92737 -8.44313,8.47158c-2.27708,1.89757 -4.67215,5.8787 -7.35323,7.24214c-4.91794,2.50099 -11.55719,2.57101 -16.83129,3.29222c-2.08875,0.28563 -3.92033,1.65445 -6,2c-4.22301,0.70168 -9.10261,0.03228 -13.40046,0.03228c-4.26979,0 -10.63067,1.00953 -14.72446,-0.10727c-1.15948,-0.31631 -1.8452,-1.66702 -3,-2c-1.17761,-0.33956 -2.46711,0.27665 -3.676,0.07499c-0.04155,-0.00693 -0.083,-0.01427 -0.12435,-0.02201z"/><path d="M256.65858,159.27804c0,-1.38071 1.11929,-2.5 2.5,-2.5c1.38071,0 2.5,1.11929 2.5,2.5c0,1.38071 -1.11929,2.5 -2.5,2.5c-1.38071,0 -2.5,-1.11929 -2.5,-2.5z"/><path d="M289.65858,163.27804c0,-1.38071 1.11929,-2.5 2.5,-2.5c1.38071,0 2.5,1.11929 2.5,2.5c0,1.38071 -1.11929,2.5 -2.5,2.5c-1.38071,0 -2.5,-1.11929 -2.5,-2.5z"/><path d="M299.92634,211.51027c0.207,0.207 0.36552,0.414 0.48408,0.61816c2.51622,1.18085 5.79279,4.57965 7.51592,6.38184c0.87304,0.9131 2.05284,1.64627 2.54193,2.81106c0.47172,1.12341 -0.01285,2.44686 0.17157,3.65125c0.5645,3.68663 1.01873,6.55061 1.01873,10.30546c0,1.33663 0.10518,6.72988 -0.47189,7.46178c-4.00364,5.07779 -11.25377,1.25177 -14.66611,-1.57314c-2.00865,-1.66286 -4.14938,-3.33686 -5.48862,-5.57431c-2.15112,-3.59383 -2.35591,-8.29972 -2.37337,-12.31433c0.06343,-1.3189 -0.38155,-2.76653 0.1903,-3.95671c0.2722,-0.56651 3.83778,-4.11212 5.24745,-5.51721c0.12443,-0.15575 0.2628,-0.28858 0.40114,-0.4005l1.89335,-1.89335c0,0 1.76777,-1.76777 3.53553,0zM298.1671,216.80505l-0.24076,0.24076c-2.15639,2.15639 -4.56658,3.0238 -4.26777,6.23223c-0.01243,2.45208 0.25092,4.93647 0.9003,7.30103c0.4051,1.47506 1.2755,2.85998 2.36747,3.9312c0.96737,0.949 1.86093,1.97486 2.87024,2.87913c1.00152,0.8973 1.90669,2.01099 3.15257,2.51693c0.86803,0.3525 1.87232,-0.07583 2.80897,-0.09601c0.45735,-0.00985 1.14058,0.40034 1.37235,0.00594c0.27173,-0.4624 -0.41643,-1.00477 -0.47189,-1.53822c-0.10342,-0.99464 0,-2 0,-3c0,-3.60589 -0.5174,-6.13963 -0.98127,-9.69454c-0.10157,-0.7784 0.43985,-1.61101 0.17157,-2.34875c-0.21432,-0.58936 -1.0011,-0.75945 -1.45807,-1.18894c-0.37468,-0.35216 -4.88685,-5.05256 -5.63269,-5.30005c-0.20326,-0.06745 -0.39908,-0.03121 -0.59102,0.05929z"/><path d="M208.61087,216.77804c-2.15076,0 -4.30153,0 -6.45229,0c-1.80868,0 -3.6882,-0.56957 -5.42562,-0.06688c-1.24711,0.36083 -6.71908,2.98145 -7.26468,4.52359c-0.56111,1.58596 0.4771,3.38562 0.1903,5.04329c-0.08145,0.4708 -1.07008,0.89438 -0.73223,1.23223c0.33785,0.33785 0.76144,-0.65078 1.23223,-0.73223c0.98536,-0.17048 2,0 3,0c1.75888,0 3.61862,0.69741 5.27554,0.10727c1.72591,-0.61471 3.16888,-1.97463 4.95669,-2.37504c0.76823,-3.05136 3.08174,-5.33538 5.22006,-7.73223zM217.41893,216.46033c-0.49022,0.86289 -1.46978,1.18941 -1.46978,1.18941l-2.27309,0.61506c-2.26319,3.71197 -5.14002,5.69007 -6.74972,9.781c-2.44924,0.98655 -4.52669,2.82577 -7.04331,3.62496c-2.28138,0.72449 -7.27868,0.33782 -9.72446,0.10727c-1.60079,-0.1509 -3.63082,0.40472 -4.76777,-0.73223c-1.13695,-1.13695 -0.58133,-3.16697 -0.73223,-4.76777c-0.39393,-4.17896 -0.45596,-7.03521 2.91503,-9.93336c7.8167,-6.72025 18.99343,-4.56664 28.58497,-4.56664c0,0 2.5,0 2.5,2.5c0,1.2431 -0.61812,1.86808 -1.23965,2.18229z"/><path d="M157.84749,154.40805c-0.01606,-0.00583 -0.0321,-0.01152 -0.04811,-0.01707l-0.22569,-0.0688c-0.44048,-0.11458 -0.85982,-0.10021 -1.23547,0.16004c-1.50896,1.0454 -1.10354,3.53905 -2.05302,5.11014c-0.42226,0.69872 -1.59237,0.85747 -1.81693,1.64238c-0.37112,1.29721 0.15839,2.69441 0.1903,4.04329c0.05519,2.33268 0.06302,4.66752 0,7c-0.03644,1.34876 -0.58853,2.75414 -0.1903,4.04329c1.2347,3.99698 9.74859,3.03696 12.16307,3.50182c1.65375,0.3184 3.06379,1.44691 4.69453,1.86757c2.20555,0.56895 4.55609,0.01521 6.8327,0.08732c1.04069,0.03296 2.31848,-0.15111 2.97189,-0.96178c1.06543,-2.16592 2.8677,-3.97423 3.63538,-6.26268c0.26754,-0.79755 -0.19471,-1.68658 -0.0951,-2.52188c0.27252,-2.28545 1.97511,-4.64604 1.17515,-6.80419c-0.18864,-0.50891 -0.83061,-0.70067 -1.27229,-1.01611c-4.21639,-3.01127 -6.91862,-1.72461 -11.72049,-2.45209c-5.07441,-0.76877 -9.50798,-3.69817 -13.00563,-7.35125zM163.68901,153.036c2.29805,1.84983 4.87524,3.38003 7.77503,3.76077c5.5967,0.73483 9.50834,-0.51846 14.27951,3.54791c1.02563,0.87412 2.23186,1.73084 2.72771,2.98389c1.03472,2.61479 -0.51459,6.77894 -0.82485,9.19581c-0.14768,1.15037 0.27016,2.37733 -0.0951,3.47812c-0.93257,2.81047 -3.02497,5.09653 -4.36462,7.73732c-1.0238,0.94931 -1.78983,2.29391 -3.0714,2.84792c-1.21202,0.52395 -2.63665,0.15903 -3.95671,0.1903c-0.93032,0.02204 -6.86745,0.04772 -7.88254,-0.19878c-1.60264,-0.38917 -2.97079,-1.53437 -4.59023,-1.84633c-1.61291,-0.31071 -3.29887,0.22494 -4.92769,0.01283c-3.75528,-0.48903 -9.35918,-2.76087 -10.90924,-6.51101c-0.75885,-1.83593 -0.1481,-3.97057 -0.1903,-5.95671c-0.07988,-3.75945 -0.80463,-9.47129 0.1903,-12.95671c0.29399,-1.0299 1.6348,-1.43755 2.18307,-2.35762c1.81959,-3.05353 -0.44138,-4.36906 3.91397,-6.87095c0.9084,-1.88471 3.00322,-1.18643 3.00322,-1.18643l3.52376,1.24508c0.13386,0.1293 0.26883,0.25899 0.40493,0.38884c0.37465,0.13089 0.73367,0.25692 1.07131,0.36608c0,0 1.66476,0.55492 1.73986,2.12967z"/><path d="M325.65846,180.28772c0.17103,0.12569 0.26789,0.22255 0.26789,0.22255c3.07299,3.11601 4.29243,3.65676 5.66536,8.19338c0.30647,1.01268 -0.14027,2.13044 0.0346,3.17393c0.35716,2.13134 1.15293,4.24277 1.03228,6.40046c-0.18491,3.30695 0.24987,8.53135 -6.45671,6.3097c-1.81595,-0.60156 -1.93803,-3.30681 -3.0714,-4.84792c-2.04628,-2.78247 -7.12628,-5.22049 -8.28159,-8.50507c-0.54864,-1.55978 -0.1903,-3.30326 -0.1903,-4.95671c0,-1.65345 -0.42346,-3.42139 0.1903,-4.95671c1.45348,-3.63587 4.57996,-3.62466 7.70336,-4.46865l3.10634,3.42536c0,0 0,0.00331 -0.00012,0.00969zM321.60748,182.31195c-0.12058,-0.09192 -0.22584,-0.19332 -0.31772,-0.30031c-0.90741,0.14852 -1.67183,0.44093 -1.82148,1.2231c-0.19101,0.9983 0.1903,2.02688 0.1903,3.04329c0,1.01641 -0.48196,2.06963 -0.1903,3.04329c0.44994,1.50206 2.34933,2.0802 3.45807,3.18894c2.49674,2.49674 3.92174,3.75046 5.02644,6.9638c-0.12357,-0.40931 -0.26519,-0.92294 -0.2942,-1.19604c-0.20012,-1.88358 -0.65807,-3.73084 -0.96772,-5.59954c-0.15401,-0.92942 0.27401,-1.91491 0.0346,-2.82607c-0.74744,-2.84467 -2.33651,-3.84178 -4.33464,-5.80662c0,0 -0.73637,-0.73637 -0.78333,-1.73385z"/></g></g></svg>