<svg version="1.1" xmlns="http://www.w3.org/2000/svg" xmlns:xlink="http://www.w3.org/1999/xlink" width="147.51319" height="126.47258" viewBox="0,0,147.51319,126.47258"><g transform="translate(-166.24341,-116.76371)"><g data-paper-data="{&quot;isPaintingLayer&quot;:true}" fill="#000000" fill-rule="nonzero" stroke="none" stroke-width="0.5" stroke-linecap="butt" stroke-linejoin="miter" stroke-miterlimit="10" stroke-dasharray="" stroke-dashoffset="0" style="mix-blend-mode: normal"><path d="M226.38576,163.26624c0,0 0,-2.5 2.5,-2.5c2.5,0 2.5,2.5 2.5,2.5c0,3 0,6 0,9v1c0,0 0,0.14731 -0.03576,0.3704c2.75718,1.97988 5.32247,3.95317 8.54714,5.34331c2.15629,0.92957 4.55156,1.17204 6.77919,1.91458c6.70069,2.23356 13.60696,3.87789 20.51489,4.89044c6.21954,0.91164 13.39791,-0.01873 19.69454,-0.01873h1c0,0 1.55381,0 2.21148,1.22497c0.62043,-0.69105 1.21081,-1.41625 1.76041,-2.18675c0.86567,-1.21361 1.17222,-2.76024 2,-4c0.47426,-0.71029 1.45513,-1.01403 1.85261,-1.76997c1.60505,-3.05255 0.6755,-8.58044 0.6755,-11.76825c0,-3.10142 0.85019,-8.96172 0.1903,-12.04329c-0.34827,-1.62636 -2.6923,-1.95528 -4.07705,-2.87658c-3.31546,-2.20584 -5.94405,-3.14486 -9.63739,-4.79953c-2.60021,-1.16493 -5.31255,-2.55508 -7.56083,-4.34724c-1.96246,-1.56432 -3.57799,-4.55487 -5.72936,-5.80673c-3.18723,-1.85461 -6.97538,-2.99699 -10.14745,-5.09852c-0.63292,-0.41932 -0.76034,-1.52658 -1.49493,-1.71841c-1.53792,-0.4016 -3.22616,0.47029 -4.76775,0.08303c-1.26211,-0.31705 -2.09103,-1.59334 -3.28692,-2.10644c-2.15789,-0.92585 -4.55114,-1.1733 -6.77919,-1.91458c-2.78668,-0.92964 -4.96999,-1.60151 -7.75114,-2.85044c-1.3809,-0.62012 -2.57163,-1.69219 -4.03268,-2.08814c-1.10233,-0.29874 -2.28357,0.05659 -3.42562,0.06688c-2.12917,0.01918 -7.17753,-0.85451 -9.27554,-0.10727c-1.00925,0.35946 -1.66988,1.36986 -2.62608,1.85306c-0.86874,0.439 -1.95021,0.37872 -2.78405,0.88084c-0.80768,0.48636 -1.18945,1.51844 -2,2c-3.15157,1.87241 -7.78814,2.30973 -10.65982,4.74757c-0.91622,0.7778 -1.07347,2.2345 -2,3c-1.06861,0.88289 -2.74293,0.82839 -3.76587,1.76381c-0.54456,0.49797 -0.30852,1.44468 -0.51693,2.15257c-0.5577,1.89434 -1.57808,3.66224 -1.90399,5.60989c-0.44355,2.6507 0.03228,5.90833 0.03228,8.59954c0,3.34078 -0.45147,7.28238 -0.03228,10.59954c0.32812,2.59647 1.56737,2.88067 2.77807,5.30208c0.4714,0.94281 0.53144,2.05578 1,3c1.30066,2.62102 2.82229,3.28108 4.0405,6.08699c1.06624,2.45589 1.24966,5.32662 2.74182,7.54961c1.34596,2.00518 3.75891,3.13803 5.09852,5.14745c0.48555,0.72833 0.02218,1.9276 0.64114,2.54656c0.61896,0.61896 1.82218,0.14971 2.54656,0.64114c2.24976,1.52626 3.59471,4.10159 5.27991,6.04417c1.63921,-1.21962 3.17353,0.31469 3.17353,0.31469l1.54656,1.64114c2.0508,0.64775 4.34091,0.14766 6.41013,0.7339c1.15634,0.32761 1.84935,1.65296 3,2c1.0459,0.31545 2.18327,-0.0886 3.27554,-0.10727c3.33009,-0.05692 6.6697,0 10,0c4.0166,0 8.66423,0.69079 12.59954,0.03228c2.07928,-0.34793 3.91463,-1.69071 6,-2c4.72558,-0.70088 10.72204,-0.54181 15.16871,-2.70778c2.19698,-1.07015 4.87638,-5.28252 6.64677,-6.75786c0.62006,-0.51671 1.2406,-1.03522 1.8543,-1.56313c-6.34454,0.05956 -13.35026,0.84575 -19.57478,-0.02224c-8.33841,-1.16277 -16.26022,-3.73202 -24.39351,-6.08097c-1.42637,-0.41194 -2.94669,-0.53178 -4.31241,-1.11401c-4.27386,-1.82203 -7.53766,-4.66772 -11.37537,-7.20616c0,0 -2.08013,-1.38675 -0.69338,-3.46688c0.18339,-0.27508 0.3789,-0.48953 0.58013,-0.65458c0,-2.84092 0,-6.2942 0,-8.95867zM222.36095,206.71195c-0.2806,0.05429 -0.47519,0.05429 -0.47519,0.05429c-1.26352,-0.04276 -2.62872,0.37012 -3.79057,-0.12829c-5.32458,-2.28415 -5.27555,-6.46566 -9.52376,-9.24508c-1.03518,-0.67728 -2.57871,-0.48413 -3.45344,-1.35886c-0.87473,-0.87473 -0.67267,-2.42415 -1.35886,-3.45344c-1.2753,-1.91295 -3.63067,-2.93662 -4.90148,-4.85255c-1.6687,-2.51581 -2.08421,-5.66908 -3.25818,-8.45039c-2.22801,-5.27849 -7.26595,-9.6997 -8.18143,-15.61093c-0.53969,-3.48477 -0.03228,-7.86233 -0.03228,-11.40046c0,-5.75104 0.14476,-10.3207 2.12829,-15.79057c0.46856,-1.29213 0.54181,-2.84585 1.48307,-3.84743c1.09306,-1.16311 3.01193,-1.20963 4.23413,-2.23619c0.9203,-0.77298 1.07078,-2.23776 2,-3c3.23324,-2.65223 7.91623,-3.17483 11.34018,-5.25243c0.80603,-0.48909 1.19084,-1.51612 2,-2c0.97415,-0.58254 2.19896,-0.61512 3.21595,-1.11916c1.19438,-0.59196 2.10342,-1.74347 3.37392,-2.14694c0.42844,-0.13606 5.94107,-0.10727 6.72446,-0.10727c0.652,0 8.2401,-0.01949 8.57438,0.06688c4.01455,1.03723 8.17026,3.71389 12.21619,5.06141c2.37627,0.79368 4.91767,1.09946 7.22081,2.08542c1.01385,0.43402 1.64285,1.62731 2.71308,1.89356c1.69271,0.4211 3.56411,-0.42677 5.23225,0.08303c1.08014,0.3301 1.5569,1.66788 2.50507,2.28159c3.06577,1.98436 6.82318,3.04153 9.85255,4.90148c2.42702,1.49012 4.05622,4.41391 6.27064,6.19327c1.79317,1.44087 4.40588,2.74905 6.43917,3.65276c4.74856,2.11051 9.54654,3.87484 13.56083,7.34724c1.01734,0.88001 2.30745,1.69787 2.72473,2.97665c1.03221,3.16329 0.1903,10.52174 0.1903,13.95671c0,4.59686 0.75888,9.91416 -1.3245,14.23175c-0.44847,0.92941 -1.57554,1.37101 -2.14739,2.23003c-0.82608,1.24089 -1.13278,2.7875 -2,4c-2.37179,3.3161 -5.39008,5.92737 -8.44313,8.47158c-2.27708,1.89757 -4.67215,5.8787 -7.35323,7.24214c-4.91794,2.50099 -11.55719,2.57101 -16.83129,3.29222c-2.08875,0.28563 -3.92033,1.65445 -6,2c-4.22301,0.70168 -9.10261,0.03228 -13.40046,0.03228c-4.26979,0 -10.63067,1.00953 -14.72446,-0.10727c-1.15948,-0.31631 -1.8452,-1.66702 -3,-2c-1.17761,-0.33956 -2.46711,0.27665 -3.676,0.07499c-0.04155,-0.00693 -0.083,-0.01427 -0.12435,-0.02201z"/><path d="M246.38576,161.26624c0,-1.38071 1.11929,-2.5 2.5,-2.5c1.38071,0 2.5,1.11929 2.5,2.5c0,1.38071 -1.11929,2.5 -2.5,2.5c-1.38071,0 -2.5,-1.11929 -2.5,-2.5z"/><path d="M279.38576,165.26624c0,-1.38071 1.11929,-2.5 2.5,-2.5c1.38071,0 2.5,1.11929 2.5,2.5c0,1.38071 -1.11929,2.5 -2.5,2.5c-1.38071,0 -2.5,-1.11929 -2.5,-2.5z"/><path d="M196.42186,205.0225c0.00427,0.29271 -0.02624,0.55164 -0.08344,0.7807c0.98226,2.60018 0.96464,7.32114 0.94508,9.81446c-0.00991,1.26327 0.32559,2.6112 -0.13511,3.78751c-0.44432,1.13452 -1.714,1.74627 -2.42084,2.73872c-2.16363,3.03787 -3.83319,5.40878 -6.44929,8.10228c-0.93126,0.95882 -4.61342,4.90089 -5.53731,5.02385c-6.40979,0.85307 -8.94491,-6.94283 -9.42453,-11.34671c-0.28233,-2.59231 -0.65164,-5.28463 -0.05344,-7.82273c0.96083,-4.07673 4.09263,-7.59513 6.87719,-10.48714c0.96441,-0.9019 1.65381,-2.25038 2.89325,-2.70572c0.58996,-0.21673 5.618,-0.27591 7.60817,-0.30168c0.19777,-0.02503 0.38957,-0.02391 0.5668,-0.00781l2.67731,-0.03903c0,0 2.49974,-0.03644 2.53617,2.46329zM191.47089,207.59495l-0.34045,0.00496c-3.04927,0.04445 -5.38254,-1.01255 -7.40359,1.49716c-1.71734,1.75032 -3.25936,3.71594 -4.44098,5.86457c-0.73712,1.34036 -1.07765,2.94025 -1.04068,4.46948c0.03274,1.35474 -0.04101,2.7132 0.05298,4.06508c0.09326,1.34146 -0.03336,2.77099 0.50785,4.00196c0.37708,0.85764 1.39592,1.25009 2.08187,1.8882c0.33494,0.31158 0.53926,1.08185 0.9803,0.96042c0.51709,-0.14238 0.40133,-1.0109 0.73321,-1.4322c0.6188,-0.78555 1.39345,-1.43468 2.09018,-2.15202c2.51231,-2.58665 3.90648,-4.76468 6.05052,-7.63795c0.46947,-0.62915 1.43795,-0.84918 1.75951,-1.56531c0.25688,-0.57209 -0.189,-1.24228 -0.21757,-1.86875c-0.02342,-0.51367 0.01472,-7.02918 -0.34788,-7.72637c-0.09881,-0.19 -0.26453,-0.30044 -0.46527,-0.36925z"/><path d="M296.5722,219.84389c0.22963,2.13847 0.45926,4.27694 0.68888,6.41541c0.1931,1.79834 -0.17254,3.72793 0.51277,5.40175c0.49191,1.20146 3.68177,6.36236 5.27335,6.7402c1.6368,0.38858 3.31533,-0.83584 4.99415,-0.72766c0.47681,0.03072 1.00352,0.96848 1.30337,0.59648c0.29985,-0.37199 -0.72836,-0.68761 -0.8596,-1.14701c-0.2747,-0.96153 -0.21353,-1.98856 -0.3203,-2.98286c-0.18779,-1.74883 0.30708,-3.6724 -0.45659,-5.25684c-0.79547,-1.65041 -2.30167,-2.93994 -2.89067,-4.67478c-3.11594,-0.43806 -5.63391,-2.49449 -8.24535,-4.36469zM295.31591,211.1201c0.9103,0.39529 1.33953,1.33439 1.33953,1.33439l0.85423,2.19443c3.93238,1.85394 6.20632,4.50313 10.44573,5.66687c1.24241,2.32991 3.29291,4.19912 4.35622,6.61603c0.96392,2.19099 1.113,7.20101 1.14489,9.65743c0.02087,1.60775 0.79005,3.56685 -0.21902,4.8187c-1.00907,1.25184 -3.0868,0.91613 -4.66235,1.23708c-4.11302,0.83785 -6.94632,1.20447 -10.1878,-1.83783c-7.51639,-7.05453 -6.56838,-18.39731 -7.59242,-27.93403c0,0 -0.26691,-2.48571 2.2188,-2.75262c1.23599,-0.13272 1.9234,0.41515 2.30216,0.99957z"/><path d="M281.57467,187.39625c-0.01606,-0.00583 -0.0321,-0.01152 -0.04811,-0.01707l-0.22569,-0.0688c-0.44048,-0.11458 -0.85982,-0.10021 -1.23547,0.16004c-1.50896,1.0454 -1.10354,3.53905 -2.05302,5.11014c-0.42226,0.69872 -1.59237,0.85747 -1.81693,1.64238c-0.37112,1.29721 0.15839,2.69441 0.1903,4.04329c0.05519,2.33268 0.06302,4.66752 0,7c-0.03644,1.34876 -0.58853,2.75414 -0.1903,4.04329c1.2347,3.99698 9.74859,3.03696 12.16307,3.50182c1.65375,0.3184 3.06379,1.44691 4.69453,1.86757c2.20555,0.56895 4.55609,0.01521 6.8327,0.08732c1.04069,0.03296 2.31848,-0.15111 2.97189,-0.96178c1.06543,-2.16592 2.8677,-3.97423 3.63538,-6.26268c0.26754,-0.79755 -0.19471,-1.68658 -0.0951,-2.52188c0.27252,-2.28545 1.97511,-4.64604 1.17515,-6.80419c-0.18864,-0.50891 -0.83061,-0.70067 -1.27229,-1.01611c-4.21639,-3.01127 -6.91862,-1.72461 -11.72049,-2.45209c-5.07441,-0.76877 -9.50798,-3.69817 -13.00563,-7.35125zM287.41619,186.0242c2.29805,1.84983 4.87524,3.38003 7.77503,3.76077c5.5967,0.73483 9.50834,-0.51846 14.27951,3.54791c1.02563,0.87412 2.23186,1.73084 2.72771,2.98389c1.03472,2.61479 -0.51459,6.77894 -0.82485,9.19581c-0.14768,1.15037 0.27016,2.37733 -0.0951,3.47812c-0.93257,2.81047 -3.02497,5.09653 -4.36462,7.73732c-1.0238,0.94931 -1.78983,2.29391 -3.0714,2.84792c-1.21202,0.52395 -2.63665,0.15903 -3.95671,0.1903c-0.93032,0.02204 -6.86745,0.04772 -7.88254,-0.19878c-1.60264,-0.38917 -2.97079,-1.53437 -4.59023,-1.84633c-1.61291,-0.31071 -3.29887,0.22494 -4.92769,0.01283c-3.75528,-0.48903 -9.35918,-2.76087 -10.90924,-6.51101c-0.75885,-1.83593 -0.1481,-3.97057 -0.1903,-5.95671c-0.07988,-3.75945 -0.80463,-9.47129 0.1903,-12.95671c0.29399,-1.0299 1.6348,-1.43755 2.18307,-2.35762c1.81959,-3.05353 -0.44138,-4.36906 3.91397,-6.87095c0.9084,-1.88471 3.00322,-1.18643 3.00322,-1.18643l3.52376,1.24508c0.13386,0.1293 0.26883,0.25899 0.40493,0.38884c0.37465,0.13089 0.73367,0.25692 1.07131,0.36608c0,0 1.66476,0.55492 1.73986,2.12967z"/><path d="M177.38564,156.27592c0.17103,0.12569 0.26789,0.22255 0.26789,0.22255c3.07299,3.11601 4.29243,3.65676 5.66536,8.19338c0.30647,1.01268 -0.14027,2.13044 0.0346,3.17393c0.35716,2.13134 1.15293,4.24277 1.03228,6.40046c-0.18491,3.30695 0.24987,8.53135 -6.45671,6.3097c-1.81595,-0.60156 -1.93803,-3.30681 -3.0714,-4.84792c-2.04628,-2.78247 -7.12628,-5.22049 -8.28159,-8.50507c-0.54864,-1.55978 -0.1903,-3.30326 -0.1903,-4.95671c0,-1.65345 -0.42346,-3.42139 0.1903,-4.95671c1.45348,-3.63587 4.57996,-3.62466 7.70336,-4.46865l3.10634,3.42536c0,0 0,0.00331 -0.00012,0.00969zM173.33466,158.30015c-0.12058,-0.09192 -0.22584,-0.19332 -0.31772,-0.30031c-0.90741,0.14852 -1.67183,0.44093 -1.82148,1.2231c-0.19101,0.9983 0.1903,2.02688 0.1903,3.04329c0,1.01641 -0.48196,2.06963 -0.1903,3.04329c0.44994,1.50206 2.34933,2.0802 3.45807,3.18894c2.49674,2.49674 3.92174,3.75046 5.02644,6.9638c-0.12357,-0.40931 -0.26519,-0.92294 -0.2942,-1.19604c-0.20012,-1.88358 -0.65807,-3.73084 -0.96772,-5.59954c-0.15401,-0.92942 0.27401,-1.91491 0.0346,-2.82607c-0.74744,-2.84467 -2.33651,-3.84178 -4.33464,-5.80662c0,0 -0.73637,-0.73637 -0.78333,-1.73385z"/></g></g></svg>