<svg version="1.1" xmlns="http://www.w3.org/2000/svg" xmlns:xlink="http://www.w3.org/1999/xlink" width="159.46119" height="129.312" viewBox="0,0,159.46119,129.312"><g transform="translate(-160.2694,-115.344)"><g data-paper-data="{&quot;isPaintingLayer&quot;:true}" fill="#000000" fill-rule="nonzero" stroke="none" stroke-width="0.5" stroke-linecap="butt" stroke-linejoin="miter" stroke-miterlimit="10" stroke-dasharray="" stroke-dashoffset="0" style="mix-blend-mode: normal"><path d="M220.68116,204.02272c0,-0.45313 0.08213,-0.82413 0.21662,-1.12789c-0.86514,-0.66093 -1.71675,-1.33671 -2.48439,-2.10435c-0.90738,-0.90738 -1.33622,-2.2036 -2.16559,-3.18279c-2.02658,-2.39269 -4.26113,-4.62244 -6.65162,-6.65162c-1.01688,-0.86318 -2.43066,-1.25807 -3.28922,-2.27885c-1.01135,-1.20244 -1.28713,-2.88224 -2.15391,-4.19273c-1.07223,-1.62112 -3.09493,-2.48297 -4.09852,-4.14745c-2.79321,-4.63259 -2.37337,-10.18619 -2.37337,-15.31433c0,-5.33333 0,-10.66667 0,-16c0,-2.76789 -0.67004,-6.93192 0.06688,-9.57438c0.25067,-0.89885 3.62921,-7.23855 4.12342,-8.38233c0.47068,-1.08931 0.52471,-2.37035 1.18307,-3.35762c1.30769,-1.961 3.80906,-2.96598 5,-5c0.57263,-0.978 0.387,-2.35605 1.13986,-3.20316c1.13849,-1.28101 2.6415,-2.31834 4.26231,-2.87525c1.36332,-0.46843 2.89773,0.13435 4.324,-0.07499c1.04292,-0.15308 1.95602,-0.85438 3,-1c3.26238,-0.45507 7.08168,-0.03228 10.40046,-0.03228c7.68703,0 15.41321,-0.04229 22.08691,4.24864c1.0758,0.37491 2.25037,0.53881 3.22741,1.12473c0.85834,0.51474 1.31118,1.54864 2.14745,2.09852c3.3239,2.1856 7.51917,2.92105 10.85255,4.90148c0.81055,0.48156 1.19155,1.51493 2,2c0.90388,0.54233 2.09846,0.45379 3,1c2.43835,1.4773 4.55464,4.81557 7.41013,5.7339c2.24517,0.72205 5.22929,-0.14679 6.91354,1.5041c3.23738,3.17325 2.82463,5.21578 2.862,8.88863c0.08431,8.28805 0.9878,17.27933 -1.01873,25.30546c-0.1927,7.44143 -7.39011,14.11004 -12.74452,18.76332c-0.87553,0.76088 -4.12904,3.5094 -4.61012,4.24555c-0.61997,0.9487 -0.40702,2.33867 -1.13986,3.20316c-1.02386,1.20778 -2.49262,1.98074 -3.88839,2.7283c-1.78719,0.95721 -4.05713,0.81874 -5.78405,1.88084c-0.8295,0.51016 -1.20419,1.62845 -2.08258,2.04887c-1.53233,0.73342 -3.24154,1.08768 -4.92629,1.30577c-0.17197,0.02226 -7.00515,0.01873 -8.30546,0.01873c-6.66667,0 -13.33333,0 -20,0h-0.46779c-0.33708,0.07836 -0.65701,0.06378 -0.94522,0h-2.58699c0,0 -2.5,0 -2.5,-2.5zM227.16192,201.52272c6.66667,0 13.35257,0 20.01924,0c3.30936,0 7.71567,0.94241 10.76825,-0.6755c0.80569,-0.42703 1.13117,-1.48928 1.91742,-1.95113c2.12186,-1.2464 6.72496,-1.19679 8.32756,-3.39086c0.57531,-0.78764 0.31248,-1.98973 0.86014,-2.79684c1.0592,-1.56101 3.95845,-3.98497 5.58774,-5.39449c4.22841,-3.65808 11.26178,-9.6452 11.05762,-15.59664c1.75084,-7.00337 0.98127,-14.48457 0.98127,-21.69454c0,-2.44095 0.79087,-6.09192 -1.138,-8.11137c-1.17663,-1.23188 -3.47447,0.055 -5.08646,-0.4959c-1.3662,-0.4669 -2.45177,-1.52576 -3.66229,-2.3126c-1.76563,-1.14767 -3.11664,-2.87876 -4.92758,-3.9535c-0.90648,-0.53797 -2.09612,-0.45767 -3,-1c-0.80845,-0.48507 -1.19397,-1.51091 -2,-2c-3.37024,-2.04501 -7.73155,-2.87254 -11.14745,-5.09852c-0.74139,-0.48313 -1.09387,-1.446 -1.85255,-1.90148c-0.83091,-0.49885 -1.84839,-0.58351 -2.77259,-0.87527c-5.97683,-3.95657 -12.98027,-3.75136 -19.91309,-3.75136c-3.02995,0 -6.62012,-0.46917 -9.59954,-0.03228c-1.04294,0.15293 -1.95588,0.85533 -3,1c-1.78126,0.24681 -4.10219,-0.93003 -5.41369,1.04977c-0.53866,0.81314 -0.35032,1.96532 -0.86014,2.79684c-1.87016,3.05029 -2.98267,1.97293 -5,5c-0.51127,0.76717 -0.45643,1.79386 -0.81693,2.64238c-1.11407,2.62226 -3.07006,4.8851 -3.87658,7.61767c-0.65892,2.23248 0.06688,6.08688 0.06688,8.42562c0,5.33333 0,10.66667 0,16c0,4.05559 -0.58435,8.97361 1.62663,12.68567c0.93527,1.57025 2.88236,2.33538 3.90148,3.85255c0.78645,1.17079 0.94901,2.71892 1.84609,3.80727c0.68078,0.82593 1.89187,1.03193 2.71078,1.72115c0.17118,0.14407 7.24487,7.22617 7.34838,7.34838c0.72426,0.8551 1.04203,2.02482 1.83441,2.81721c1.5873,1.5873 3.52576,2.78971 5.213,4.26777z"/><path d="M220.68116,156.02272c0,-1.38071 1.11929,-2.5 2.5,-2.5c1.38071,0 2.5,1.11929 2.5,2.5c0,1.38071 -1.11929,2.5 -2.5,2.5c-1.38071,0 -2.5,-1.11929 -2.5,-2.5z"/><path d="M258.68116,158.02272c0,-1.38071 1.11929,-2.5 2.5,-2.5c1.38071,0 2.5,1.11929 2.5,2.5c0,1.38071 -1.11929,2.5 -2.5,2.5c-1.38071,0 -2.5,-1.11929 -2.5,-2.5z"/><path d="M275.41722,171.90468c1.11803,2.23607 -1.11803,3.3541 -1.11803,3.3541l-1.35027,0.5317c-2.3774,2.3551 -4.0306,5.0076 -6.45344,7.35886c-7.53316,2.58124 -16.37511,1.37337 -24.31433,1.37337c-6.19217,0 -13.31569,0.97874 -19.40046,-0.03228c-5.43377,-0.90285 -10.99929,-4.18695 -11.09954,-10.46772c-0.02104,-1.31814 0.75219,-2.52705 1.12829,-3.79057c0,0 0.79057,-2.37171 3.16228,-1.58114c2.37171,0.79057 1.58114,3.16228 1.58114,3.16228c-1.83245,4.64452 1.65383,7.00964 6.02875,7.74171c3.01239,0.50407 6.5333,-0.03228 9.59954,-0.03228c5.33333,0 10.66667,0 16,0c4.72554,0 10.15718,0.80371 14.68567,-0.62663c2.02227,-2.13557 3.45837,-4.53635 5.54656,-6.64114l2.64973,-1.4683c0,0 2.23607,-1.11803 3.3541,1.11803z"/><path d="M190.97173,185.65101c2.37171,0.79057 1.58114,3.16228 1.58114,3.16228l-0.89849,2.63964c-0.11028,0.84864 -0.5459,1.34933 -1.02154,1.64473c-0.43487,0.50857 -0.85278,1.02568 -1.05895,1.64952c-0.3382,1.02333 0.33723,2.23979 -0.08303,3.23225c-1.03128,2.43541 -3.44447,4.01785 -5.05235,6.11772c-1.19881,4.98232 -2.7634,8.10431 -6.48958,11.69334c-0.90988,0.87639 -1.61932,2.12275 -2.81106,2.54193c-1.55978,0.54864 -3.30349,0.16238 -4.95671,0.1903c-2.37911,0.04018 -7.29824,0.45392 -9.02811,-2.03822c-2.8473,-4.102 1.91951,-8.91014 3.97061,-11.88188c3.23748,-4.69064 6.17888,-7.95731 10.47252,-11.51325c1.17348,-0.97186 1.98214,-2.38006 3.27064,-3.19327c2.58148,-1.62925 5.61166,-1.50013 8.5352,-1.40909l0.40742,-1.25485c0,0 0.79057,-2.37171 3.16228,-1.58114zM184.77757,193.3321c-1.25431,0.02684 -2.44905,0.21772 -3.28208,0.81724c-5.04865,3.63345 -8.72812,8.1809 -12.25683,13.29348c-1.22075,1.76869 -2.49212,3.50341 -3.66477,5.30435c-0.16219,0.24909 -0.59655,0.62785 -0.36462,0.81376c1.29314,1.03662 3.31502,-0.07764 4.97189,-0.03822c1.01612,0.02417 2.06963,0.48196 3.04329,0.1903c0.60075,-0.17995 0.75793,-1.00254 1.18894,-1.45807c3.3126,-3.50103 4.28926,-5.58194 5.51042,-10.30666c1.1229,-1.52119 2.15165,-3.11661 3.36871,-4.56358c0.4414,-0.52478 1.34321,-0.67476 1.57894,-1.3187c0.3132,-0.8556 -0.35935,-1.86646 -0.09389,-2.73391z"/><path d="M302.18116,186.52272c0.38161,0 0.70497,0.05825 0.97897,0.15697c1.19218,-0.5475 2.40778,0.26291 2.40778,0.26291c0.47427,0.31618 6.168,4.09488 6.38102,4.31236c1.69692,1.73246 2.11746,4.3702 3.35886,6.45344c0.54827,0.92007 1.78885,1.36177 2.18307,2.35762c0.76767,1.93922 0.40247,4.18753 1.06201,6.16614c0.82977,2.4893 1.32804,5.17423 1.12829,7.79057c-0.1224,1.60322 0.49521,3.72916 -0.73223,4.76777c-1.47946,1.25185 -3.83354,0.61101 -5.76777,0.73223c-1.79666,0.1126 -3.61953,0.23031 -5.40046,-0.03228c-10.22316,-1.50738 -8.09954,-12.9858 -8.09954,-20.46772c0,-2.33333 0,-4.66667 0,-7v-3c0,0 0,-2.5 2.5,-2.5zM304.68116,192.241c0,2.26057 0,4.52114 0,6.78171c0,3.79406 -0.3851,7.8352 -0.03228,11.59954c0.11737,1.25227 0.68851,2.6206 1.84661,3.27383c2.24141,1.26427 4.10434,0.36216 6.68567,0.62663c0.77901,0.07981 1.48933,0.97987 2.23223,0.73223c0.45327,-0.15109 -0.66373,-0.75938 -0.73223,-1.23223c-0.29965,-2.06851 -0.21076,-4.22658 -0.87171,-6.20943c-0.37556,-1.12668 -0.90748,-2.21755 -1.09601,-3.39011c-0.12958,-0.80593 0.46508,-1.68742 0.15802,-2.44375c-0.3071,-0.75644 -1.39466,-0.94366 -1.81693,-1.64238c-1.05915,-1.75258 -1.17154,-4.12051 -2.64114,-5.54656c-1.08312,-1.05103 -2.41101,-1.79555 -3.73223,-2.54948z"/><path d="M215.34391,220.56387c-1.86505,2.27204 -3.34113,4.77868 -5.27412,7.09685c-1.62289,1.94628 -4.41573,3.55002 -5.76201,5.67632c-1.13299,1.78943 -0.41476,2.69149 -0.62663,4.68567c-0.05666,0.53333 -0.74362,1.07583 -0.47189,1.53822c0.23177,0.3944 0.91492,-0.00154 1.37235,-0.00594c1.86646,-0.01796 3.733,-0.03228 5.59954,-0.03228c1.33333,0 2.66801,-0.05977 4,0c0.63282,0.0284 1.36368,0.62815 1.88197,0.26393c2.10372,-1.47837 1.86079,-3.86781 2.87225,-5.86231c0.48456,-0.95551 1.4936,-1.61683 1.85306,-2.62608c0.25478,-0.71534 -0.07151,-1.51703 -0.10727,-2.27554c0,-2.99055 -0.11275,-6.01182 0,-9c0.10432,-2.76474 -0.67304,-3.75754 -2.73223,-1.23223l-1,1c0,0 -0.67361,0.67361 -1.60501,0.77338zM215.15183,214.47141c0.61463,-0.7173 1.20668,-1.47343 2.07262,-1.75839c3.52349,-1.15949 6.62213,-0.0391 8.26641,3.35299c0.57596,1.18819 0.15419,2.63677 0.1903,3.95671c0.08189,2.99378 0,6.00498 0,9c-0.03576,1.24149 0.26865,2.54071 -0.10727,3.72446c-0.40347,1.2705 -1.55669,2.17869 -2.14694,3.37392c-1.41967,2.87473 -2.43961,6.39028 -5.12775,8.13769c-0.53722,0.34921 -7.50342,0.26393 -8.11803,0.26393c-3.1675,0 -8.7015,0.9126 -11.02811,-2.03822c-0.39493,-0.50089 -0.63479,-6.82278 -0.43961,-7.86223c0.92716,-4.93788 4.62808,-6.69394 7.57908,-10.23755c2.53127,-3.03959 4.33473,-6.32148 7.12087,-9.12976c0,0 0.73863,-0.73863 1.73844,-0.78354z"/><path d="M261.54082,219.32536c-0.1354,2.83762 -0.26811,5.73311 0.12161,8.3919c0.19932,1.35984 0.81018,2.6388 1,4c0.15218,1.09128 0.18988,2.21699 0.01873,3.30546c-0.07422,0.47199 -1.19316,1.1064 -0.73223,1.23223c0.97178,0.26529 1.97516,-0.85154 2.95669,-0.62496c1.17105,0.27033 1.86875,1.59414 3,2c1.91066,0.6855 5.78743,-0.09508 7.87508,-0.07499c0.45743,0.0044 1.14058,0.40034 1.37235,0.00594c0.27173,-0.4624 -0.41643,-1.00477 -0.47189,-1.53822c-0.17399,-1.67327 0.80458,-3.47716 0.1903,-5.04329c-0.54253,-1.3832 -2.22963,-1.9678 -3.27527,-3.02335c-2.84107,-1.93308 -4.57559,-2.51238 -5.80776,-6.20889c-0.21652,-0.64956 0.92918,-1.3433 0.62496,-1.95669c-0.21229,-0.42804 -0.75819,0.67246 -1.23223,0.73223c-1.23225,0.15537 -2.56094,0.32723 -3.72446,-0.10727c-0.69255,-0.25862 -1.31635,-0.65079 -1.91588,-1.09009zM257.68304,212.94975c-0.00547,-0.76064 0.27079,-1.81982 1.70755,-2.29874c2.37171,-0.79057 3.16228,1.58114 3.16228,1.58114l0.61506,2.27309c2.49046,1.612 6.70909,-0.08507 8.781,1.74972c1.02099,0.90414 0.1937,2.74952 0.62496,4.04331c0.66358,1.99075 2.61281,2.76267 4.19224,3.79111c0.66032,0.65512 4.47733,4.36383 4.72473,4.97665c0.1651,0.40894 0.24577,6.07957 0.1903,6.95671c-0.09439,1.49257 0.45408,3.28736 -0.47189,4.46178c-2.29018,2.90461 -7.88941,2.08829 -11.02811,2.03822c-1.24184,-0.01981 -2.53929,0.26413 -3.72446,-0.10727c-1.14686,-0.35939 -1.85745,-1.62713 -3,-2c-1.61037,-0.52555 -3.80517,0.53111 -5.04331,-0.62496c-1.41582,-1.32198 -0.43771,-5.58075 -0.7135,-7.46231c-0.19932,-1.35984 -0.81018,-2.6388 -1,-4c-0.59384,-4.25848 -0.01873,-8.99285 -0.01873,-13.30546c0,0 0,-1.35891 1.00188,-2.07297z"/></g></g></svg>